<svg width="15" height="20" viewBox="0 0 15 20" fill="none" xmlns="http://www.w3.org/2000/svg">
<path d="M6.72915 19.6C1.05333 11.3683 0 10.5241 0 7.49999C0 3.35749 3.35749 0 7.49999 0C11.6425 0 15 3.35749 15 7.49999C15 10.5241 13.9466 11.3666 8.27082 19.5966C8.18462 19.7208 8.06972 19.8222 7.93588 19.8924C7.80204 19.9626 7.65323 19.9995 7.50211 19.9998C7.35098 20.0001 7.20201 19.9639 7.06787 19.8943C6.93373 19.8247 6.81839 19.7237 6.73165 19.6L6.72999 19.5966L6.72915 19.6ZM7.49999 10.625C8.32879 10.625 9.12364 10.2957 9.70969 9.70969C10.2957 9.12364 10.625 8.32879 10.625 7.49999C10.625 6.67119 10.2957 5.87633 9.70969 5.29028C9.12364 4.70423 8.32879 4.37499 7.49999 4.37499C6.67119 4.37499 5.87633 4.70423 5.29028 5.29028C4.70423 5.87633 4.37499 6.67119 4.37499 7.49999C4.37499 8.32879 4.70423 9.12364 5.29028 9.70969C5.87633 10.2957 6.67119 10.625 7.49999 10.625Z" fill="white"/>
</svg>
