<svg width="18" height="22" viewBox="0 0 18 22" fill="none" xmlns="http://www.w3.org/2000/svg">
<g clip-path="url(#clip0_735_5210)">
<path d="M1.73584 6.6059L3.36741 8.50402L4.36583 7.70107V13.3713H3.31059V14.0295H16.424V13.3713H15.3701V7.70241L16.3699 8.50536L18.0015 6.60724L9.86797 0L1.73584 6.6059ZM11.1573 13.3727H8.57868V9.5563H11.1573V13.3727ZM14.7058 13.3727H11.8229V8.89812H7.91442V13.3727H5.03144V7.1689L9.86797 3.28418L14.7045 7.1689V13.3727H14.7058ZM16.2847 7.58847L9.86797 2.43566L3.45264 7.58847L2.6815 6.69035L9.86797 0.852547L17.0544 6.69035L16.2833 7.58847H16.2847Z" fill="#2B478B"/>
<path d="M9.60271 21.9987C11.03 21.9142 17.2383 19 17.6726 17.1676C17.8079 16.5992 17.7443 16.1501 17.4859 15.8324C17.149 15.4196 16.6322 15.4169 16.5741 15.4182H16.5118L16.4537 15.4424C15.2821 15.9209 13.9414 16.4705 13.2257 16.7694C13.0458 16.4638 12.7265 16.2158 12.2489 16.1247L7.60045 15.9223C5.86877 15.4477 4.57272 15.2681 3.31184 15.2708H0V15.929H3.97204C4.98129 15.929 6.49109 16.3016 7.45975 16.567L7.49628 16.5778L12.1461 16.7775C12.6156 16.8753 12.763 17.2131 12.7441 17.5C12.7265 17.756 12.5641 18.0416 12.2462 18.059C11.8336 18.0845 10.6904 18.1542 9.54047 18.2212C8.82074 18.2627 8.09831 18.303 7.5504 18.3298L5.60361 18.4263L7.47328 18.9745C7.72762 19.0496 8.76122 19.2668 9.06562 19.2507L9.04803 18.9075C9.21308 18.8981 9.38083 18.8887 9.54724 18.8794C10.9881 18.7963 12.4275 18.7078 12.4492 18.7064V18.6944C12.9754 18.5885 13.3691 18.1273 13.4083 17.5416C13.411 17.4973 13.411 17.4531 13.4097 17.4075C14.0929 17.122 15.5621 16.5201 16.6363 16.0804C16.7175 16.0912 16.8744 16.1274 16.9718 16.2493C17.0909 16.3995 17.1098 16.6649 17.0259 17.0161C16.6877 18.4397 10.9204 21.2601 9.56347 21.3405C8.81263 21.3834 2.77069 19.9089 1.89538 19.6515C1.86156 19.6421 1.83044 19.6327 1.77497 19.6354C1.61533 19.6448 1.2487 19.756 0 20.2346V20.941C0.722435 20.6622 1.53416 20.3579 1.77091 20.3016C2.70846 20.5617 8.70304 22.0496 9.60135 21.9973L9.60271 21.9987Z" fill="#2B478B"/>
</g>
<defs>
<clipPath id="clip0_735_5210">
<rect width="18" height="22" fill="white"/>
</clipPath>
</defs>
</svg>
