<svg width="295" height="256" viewBox="0 0 295 256" fill="none" xmlns="http://www.w3.org/2000/svg">
<path fill-rule="evenodd" clip-rule="evenodd" d="M285.963 247.814C285.963 247.431 286.117 247.073 286.449 246.766C286.769 246.472 287.165 246.319 287.612 246.319C288.06 246.319 288.456 246.459 288.788 246.753C289.12 247.06 289.274 247.405 289.274 247.801C289.274 248.198 289.108 248.556 288.788 248.875C288.456 249.169 288.072 249.323 287.612 249.323C287.152 249.323 286.781 249.169 286.449 248.862C286.117 248.568 285.963 248.21 285.963 247.801V247.814ZM289.21 243.405L288.66 243.341C289.414 240.478 290.181 237.039 290.935 233C291.728 228.731 292.674 226.558 293.747 226.558C294.156 226.558 294.463 226.686 294.68 226.916C294.911 227.172 295 227.529 295 227.99C295 228.642 294.284 230.687 292.827 234.112C291.37 237.538 290.169 240.631 289.21 243.392V243.405ZM277.515 234.01C279.138 234.01 280.416 234.508 281.375 235.505C282.346 236.477 282.819 237.781 282.819 239.391C282.819 240.669 282.512 241.96 281.899 243.277C281.285 244.606 280.429 245.782 279.33 246.805C278.512 247.61 277.604 248.198 276.607 248.632C275.623 249.041 274.626 249.271 273.616 249.271C272.031 249.271 270.766 248.786 269.807 247.814C268.849 246.83 268.376 245.539 268.376 243.954C268.376 242.676 268.683 241.359 269.309 240.03C269.922 238.714 270.779 237.525 271.878 236.49C272.696 235.71 273.591 235.096 274.575 234.675C275.559 234.24 276.543 234.01 277.527 234.01H277.515ZM277.681 234.687C276.888 234.687 276.134 234.93 275.419 235.416C274.728 235.927 274.025 236.681 273.361 237.729C272.619 238.88 272.031 240.158 271.571 241.564C271.124 242.996 270.881 244.235 270.881 245.335C270.881 246.319 271.137 247.137 271.622 247.738C272.108 248.326 272.734 248.645 273.527 248.645C274.319 248.645 275.073 248.377 275.776 247.878C276.492 247.38 277.17 246.613 277.822 245.577C278.563 244.414 279.176 243.123 279.637 241.692C280.084 240.247 280.314 239.008 280.314 237.934C280.314 236.95 280.084 236.17 279.585 235.569C279.087 234.969 278.461 234.675 277.668 234.675L277.681 234.687ZM256.63 248.939L259.927 238.266C260.132 237.64 260.26 237.193 260.311 236.962C260.362 236.745 260.4 236.553 260.4 236.413C260.4 236.055 260.247 235.799 259.966 235.659C259.672 235.505 259.186 235.416 258.496 235.416H258.227V234.956C259.186 234.879 260.106 234.764 260.988 234.611C261.87 234.457 262.726 234.253 263.544 234.01L261.576 240.49C262.918 238.138 264.056 236.477 265.001 235.505C265.947 234.508 266.88 234.01 267.788 234.01C268.235 234.01 268.593 234.163 268.862 234.432C269.13 234.7 269.258 235.084 269.258 235.556C269.258 236.029 269.143 236.375 268.874 236.656C268.619 236.937 268.286 237.078 267.89 237.078C267.392 237.078 266.995 236.899 266.714 236.541C266.433 236.196 266.19 236.017 265.999 236.017C265.193 236.017 264.107 237.244 262.714 239.711C261.333 242.177 260.093 245.232 258.981 248.939H256.617H256.63ZM255.096 234.368L251.734 245.335L251.696 245.437C251.44 246.165 251.325 246.715 251.325 247.073C251.325 247.265 251.376 247.444 251.479 247.559C251.581 247.686 251.721 247.75 251.862 247.75C252.182 247.75 252.539 247.597 252.948 247.252C253.345 246.945 253.869 246.383 254.495 245.565L254.968 245.82C254.009 247.098 253.191 247.98 252.488 248.504C251.773 249.029 251.057 249.284 250.354 249.284C249.843 249.284 249.459 249.169 249.203 248.901C248.961 248.658 248.82 248.274 248.82 247.776C248.82 247.559 248.858 247.252 248.935 246.843C249.024 246.434 249.14 245.999 249.28 245.552L250.354 242.011C248.654 244.529 247.133 246.37 245.816 247.533C244.487 248.709 243.26 249.297 242.135 249.297C241.483 249.297 241.01 249.144 240.691 248.85C240.359 248.556 240.192 248.121 240.192 247.546C240.192 247.277 240.231 246.932 240.307 246.511C240.397 246.089 240.512 245.641 240.653 245.143L242.723 238.241C242.723 238.241 242.761 238.087 242.813 237.959C243.055 237.154 243.171 236.63 243.171 236.387C243.171 236.017 243.017 235.761 242.736 235.608C242.455 235.467 241.892 235.378 241.036 235.378V234.917C241.982 234.841 242.915 234.726 243.81 234.572C244.704 234.419 245.573 234.214 246.379 233.972L243.132 244.798C242.966 245.36 242.851 245.782 242.8 246.089C242.723 246.395 242.698 246.651 242.698 246.868C242.698 247.175 242.774 247.392 242.915 247.559C243.068 247.712 243.273 247.789 243.541 247.789C244.794 247.789 246.404 246.472 248.347 243.801C250.315 241.142 251.773 237.998 252.731 234.342H255.096V234.368ZM234.262 235.199H231.91L232.025 234.611C233.111 234.496 234.159 234.074 235.169 233.307C236.179 232.553 236.997 231.581 237.623 230.393H238.262L237.035 234.368H239.541L239.413 235.199H236.78L233.674 245.322C233.546 245.744 233.444 246.089 233.38 246.395C233.316 246.689 233.278 246.92 233.278 247.098C233.278 247.303 233.329 247.456 233.418 247.571C233.52 247.686 233.648 247.738 233.814 247.738C234.134 247.738 234.492 247.584 234.888 247.239C235.271 246.932 235.795 246.37 236.422 245.552L236.895 245.808C235.923 247.086 235.105 247.968 234.39 248.492C233.687 249.003 232.945 249.271 232.204 249.271C231.693 249.271 231.309 249.144 231.041 248.875C230.785 248.632 230.645 248.249 230.645 247.763C230.645 247.546 230.683 247.252 230.76 246.881C230.836 246.523 230.964 246.076 231.117 245.539L234.262 235.186V235.199ZM228.676 234.368L225.315 245.335L225.289 245.437C225.033 246.165 224.906 246.715 224.906 247.073C224.906 247.265 224.957 247.444 225.072 247.559C225.174 247.686 225.302 247.75 225.455 247.75C225.775 247.75 226.133 247.597 226.529 247.252C226.925 246.945 227.436 246.383 228.075 245.565L228.548 245.82C227.602 247.098 226.772 247.98 226.069 248.504C225.353 249.029 224.637 249.284 223.934 249.284C223.423 249.284 223.039 249.169 222.784 248.901C222.528 248.658 222.4 248.274 222.4 247.776C222.4 247.559 222.439 247.252 222.528 246.843C222.605 246.434 222.72 245.999 222.86 245.552L223.934 242.011C222.221 244.529 220.713 246.37 219.397 247.533C218.067 248.709 216.84 249.297 215.703 249.297C215.051 249.297 214.578 249.144 214.258 248.85C213.926 248.556 213.773 248.121 213.773 247.546C213.773 247.277 213.811 246.92 213.888 246.511C213.977 246.089 214.092 245.641 214.233 245.143L216.393 238.292C216.419 238.228 216.444 238.138 216.47 238.023C216.713 237.218 216.866 236.694 216.866 236.451C216.866 235.275 215.46 237.499 214.795 238.151L214.054 237.487C214.667 236.707 216.482 234.726 217.377 234.585C218.259 234.432 220.343 234.56 220.1 235.263L216.713 244.811C216.521 245.347 216.444 245.808 216.367 246.101C216.304 246.408 216.265 246.664 216.265 246.881C216.265 247.188 216.342 247.405 216.482 247.571C216.623 247.725 216.84 247.801 217.122 247.801C218.361 247.801 219.972 246.485 221.915 243.814C223.883 241.155 225.34 238.011 226.299 234.355H228.676V234.368ZM210.935 235.467C209.874 240.286 207.599 255.995 200.275 255.995C199.713 255.995 199.266 255.854 198.92 255.573C198.563 255.292 198.384 254.921 198.384 254.474C198.384 254.09 198.499 253.783 198.716 253.553C198.946 253.336 199.253 253.208 199.611 253.208C199.879 253.208 200.135 253.31 200.326 253.477C200.518 253.643 200.62 253.873 200.62 254.129C200.62 254.307 200.569 254.499 200.48 254.665C200.39 254.832 200.339 254.934 200.339 254.985C200.339 255.074 200.378 255.138 200.441 255.177C200.493 255.228 200.595 255.253 200.71 255.253C202.359 255.253 204.455 253.617 206.065 245.629C206.781 242.088 207.97 237.653 208.507 235.467H205.912L206.104 234.623H208.698C209.836 230.405 212.316 225.957 216.981 225.957C217.62 225.957 218.502 226.354 218.86 226.635C219.231 226.916 219.435 227.312 219.435 227.785C219.435 228.181 219.307 228.488 219.09 228.693C218.885 228.897 218.566 229.025 218.17 229.025C217.85 229.025 217.582 228.923 217.416 228.769C217.224 228.616 217.122 228.386 217.122 228.117C217.122 227.964 217.173 227.772 217.249 227.593C217.313 227.414 217.377 227.274 217.377 227.223C217.377 227.133 217.339 227.057 217.288 227.005C217.237 226.967 217.147 226.916 217.032 226.916C215.703 226.916 214.846 227.172 213.824 228.693C212.661 230.418 211.383 233.524 211.14 234.611H214.003L213.786 235.454H210.922L210.935 235.467ZM188.989 233.997C190.6 233.997 191.891 234.496 192.849 235.493C193.821 236.464 194.294 237.768 194.294 239.378C194.294 240.656 193.987 241.947 193.373 243.264C192.747 244.593 191.891 245.769 190.804 246.792C189.973 247.597 189.066 248.185 188.082 248.62C187.085 249.029 186.088 249.259 185.078 249.259C183.506 249.259 182.228 248.773 181.282 247.801C180.323 246.817 179.838 245.526 179.838 243.941C179.838 242.663 180.157 241.347 180.771 240.017C181.384 238.701 182.24 237.512 183.34 236.477C184.145 235.697 185.04 235.084 186.037 234.662C187.021 234.227 188.018 233.997 189.002 233.997H188.989ZM189.155 234.675C188.363 234.675 187.609 234.917 186.906 235.403C186.203 235.914 185.513 236.669 184.848 237.717C184.107 238.867 183.519 240.145 183.058 241.551C182.598 242.983 182.368 244.223 182.368 245.322C182.368 246.306 182.611 247.124 183.097 247.725C183.595 248.313 184.222 248.632 185.001 248.632C185.781 248.632 186.535 248.364 187.251 247.865C187.967 247.367 188.644 246.6 189.283 245.565C190.037 244.402 190.638 243.111 191.098 241.679C191.558 240.235 191.788 238.995 191.788 237.921C191.788 236.937 191.546 236.157 191.06 235.556C190.574 234.956 189.935 234.662 189.155 234.662V234.675ZM175.172 236.029L176.795 230.546C176.821 230.444 176.872 230.29 176.923 230.111C177.128 229.396 177.23 228.935 177.23 228.705C177.23 228.36 177.115 228.105 176.847 227.926C176.604 227.772 176.169 227.708 175.594 227.708H175.108V227.223C176.041 227.133 176.949 227.018 177.831 226.865C178.713 226.724 179.595 226.533 180.451 226.302L174.802 245.322C174.776 245.398 174.75 245.501 174.712 245.629C174.533 246.268 174.444 246.753 174.444 247.073C174.444 247.265 174.495 247.444 174.584 247.559C174.687 247.686 174.802 247.75 174.955 247.75C175.3 247.75 175.658 247.597 176.041 247.252C176.438 246.945 176.949 246.383 177.588 245.565L178.061 245.82C177.128 247.06 176.284 247.968 175.581 248.504C174.853 249.029 174.137 249.284 173.408 249.284C172.897 249.284 172.514 249.169 172.258 248.901C171.99 248.671 171.862 248.3 171.862 247.84C171.862 247.507 171.977 246.894 172.232 245.974C172.296 245.795 172.335 245.641 172.36 245.526L172.68 244.338C171.76 245.935 170.737 247.162 169.599 248.019C168.462 248.862 167.286 249.284 166.072 249.284C165.062 249.284 164.269 248.965 163.707 248.3C163.132 247.648 162.851 246.753 162.851 245.59C162.851 244.427 163.081 243.289 163.554 242.05C164.027 240.823 164.704 239.621 165.586 238.445C166.634 237.065 167.772 235.978 169.011 235.173C170.264 234.368 171.414 233.972 172.501 233.972C173.268 233.972 173.881 234.163 174.354 234.508C174.802 234.853 175.083 235.365 175.211 236.017L175.172 236.029ZM167.708 247.533C168.321 247.533 168.973 247.29 169.676 246.766C170.379 246.268 171.057 245.565 171.721 244.657C172.59 243.43 173.293 242.062 173.843 240.58C174.393 239.084 174.661 237.844 174.661 236.847C174.661 236.144 174.508 235.595 174.175 235.211C173.843 234.828 173.396 234.623 172.808 234.623C172.22 234.623 171.644 234.815 171.018 235.173C170.405 235.544 169.778 236.081 169.152 236.809C168.04 238.023 167.158 239.378 166.506 240.848C165.854 242.331 165.522 243.66 165.522 244.862C165.522 245.705 165.714 246.37 166.097 246.83C166.481 247.29 167.018 247.52 167.721 247.52L167.708 247.533ZM146.017 248.914L149.315 238.241C149.52 237.614 149.647 237.167 149.698 236.937C149.75 236.72 149.775 236.528 149.775 236.387C149.775 236.029 149.635 235.774 149.341 235.633C149.059 235.48 148.561 235.39 147.871 235.39H147.615V234.93C148.561 234.853 149.481 234.738 150.376 234.585C151.245 234.432 152.101 234.227 152.919 233.984L150.734 241.283C152.421 238.778 153.942 236.924 155.271 235.761C156.601 234.585 157.84 233.984 158.978 233.984C159.604 233.984 160.09 234.138 160.422 234.432C160.742 234.713 160.908 235.122 160.908 235.646C160.908 235.953 160.87 236.311 160.793 236.72C160.716 237.129 160.588 237.602 160.422 238.126L158.275 245.309C158.275 245.309 158.211 245.475 158.173 245.629C157.968 246.229 157.866 246.689 157.866 247.047C157.866 247.265 157.917 247.431 158.007 247.546C158.109 247.686 158.237 247.738 158.39 247.738C158.722 247.738 159.08 247.584 159.464 247.239C159.86 246.932 160.371 246.37 161.01 245.552L161.483 245.808C160.537 247.086 159.706 247.968 158.991 248.492C158.288 249.016 157.572 249.271 156.856 249.271C156.345 249.271 155.961 249.156 155.706 248.888C155.463 248.645 155.322 248.262 155.322 247.763C155.322 247.546 155.373 247.226 155.437 246.83C155.527 246.421 155.642 245.999 155.77 245.539L157.955 238.42C158.096 237.972 158.198 237.563 158.275 237.231C158.339 236.899 158.377 236.617 158.377 236.4C158.377 236.081 158.3 235.85 158.16 235.697C158.032 235.544 157.802 235.454 157.521 235.454C156.268 235.454 154.671 236.796 152.715 239.455C150.759 242.126 149.302 245.283 148.344 248.926H145.966L146.017 248.914ZM143.039 245.526L143.474 245.871C142.49 246.971 141.442 247.814 140.291 248.389C139.154 248.977 137.965 249.271 136.776 249.271C135.306 249.271 134.143 248.837 133.287 247.968C132.43 247.111 132.009 245.923 132.009 244.44C132.009 243.123 132.328 241.807 132.98 240.452C133.632 239.135 134.565 237.883 135.766 236.758C136.776 235.799 137.786 235.109 138.783 234.662C139.793 234.214 140.854 233.984 141.953 233.984C142.899 233.984 143.64 234.227 144.19 234.662C144.739 235.109 145.008 235.735 145.008 236.515C145.008 238.023 144.087 239.302 142.272 240.375C140.457 241.423 138.003 242.037 134.974 242.216C134.885 242.42 134.846 242.65 134.808 242.906C134.77 243.149 134.757 243.456 134.757 243.839C134.757 245.092 135.063 246.076 135.69 246.792C136.303 247.508 137.134 247.865 138.195 247.865C138.936 247.865 139.742 247.661 140.56 247.265C141.403 246.868 142.208 246.293 143.014 245.539L143.039 245.526ZM135.089 241.513C137.339 241.347 139.205 240.746 140.687 239.711C142.17 238.662 142.911 237.525 142.911 236.221C142.911 235.735 142.758 235.378 142.464 235.122C142.183 234.866 141.761 234.738 141.211 234.738C140.036 234.738 138.872 235.365 137.722 236.592C136.584 237.832 135.715 239.481 135.076 241.513H135.089ZM122.768 249.386C122.678 247.15 122.525 245.015 122.282 243.021C122.052 241.027 121.771 239.353 121.438 237.947C121.016 236.272 120.377 235.454 119.534 235.454C119.457 235.454 119.355 235.48 119.24 235.48C119.125 235.48 118.946 235.505 118.703 235.518L118.614 235.109L122.704 233.984C123.177 234.892 123.598 236.413 123.943 238.56C124.301 240.733 124.595 243.456 124.8 246.753C128.494 241.717 130.334 238.65 130.334 237.512C130.334 237.09 130.053 236.694 129.478 236.285C128.903 235.889 128.622 235.48 128.622 235.084C128.622 234.777 128.749 234.534 129.005 234.329C129.248 234.138 129.567 234.035 129.938 234.035C130.488 234.035 130.909 234.202 131.216 234.547C131.523 234.879 131.676 235.365 131.676 235.991C131.676 237.09 131.165 238.522 130.143 240.324C129.133 242.126 127.254 244.798 124.506 248.377C122.589 250.882 120.876 252.774 119.342 254.052C117.808 255.356 116.543 255.995 115.52 255.995C115.073 255.995 114.702 255.892 114.408 255.65C114.114 255.419 113.974 255.113 113.974 254.729C113.974 254.41 114.102 254.128 114.357 253.911C114.613 253.681 114.945 253.553 115.341 253.553C115.699 253.553 116.057 253.707 116.402 253.95C116.76 254.205 117.067 254.333 117.31 254.333C117.719 254.333 118.358 253.937 119.24 253.157C120.109 252.365 121.285 251.125 122.755 249.412L122.768 249.386ZM105.116 238.266C105.116 238.266 105.167 238.113 105.206 237.985C108.848 225.651 100.272 254.422 105.116 238.266ZM89.6631 248.939L92.9608 238.266C93.1653 237.64 93.2931 237.193 93.3442 236.962C93.4081 236.745 93.4337 236.553 93.4337 236.413C93.4337 236.055 93.2931 235.799 92.9991 235.659C92.7179 235.505 92.2322 235.416 91.5293 235.416H91.2608V234.956C92.2195 234.879 93.127 234.764 94.0089 234.611C94.8908 234.457 95.7472 234.253 96.578 234.01L94.6096 240.49C95.9517 238.138 97.0893 236.477 98.0351 235.505C98.9937 234.508 99.914 234.01 100.834 234.01C101.282 234.01 101.64 234.163 101.908 234.432C102.176 234.7 102.304 235.084 102.304 235.556C102.304 236.029 102.176 236.375 101.921 236.656C101.665 236.937 101.333 237.078 100.937 237.078C100.425 237.078 100.029 236.899 99.7478 236.541C99.4666 236.196 99.2238 236.017 99.0321 236.017C98.2268 236.017 97.1404 237.244 95.76 239.711C94.3668 242.177 93.127 245.232 92.0277 248.939H89.6504H89.6631ZM84.4866 235.199H82.1348L82.2626 234.611C83.3362 234.496 84.3843 234.074 85.4068 233.307C86.4038 232.553 87.2346 231.581 87.8609 230.393H88.4872L87.2602 234.368H89.7654L89.6376 235.199H87.0046L83.8986 245.322C83.7836 245.744 83.6685 246.089 83.6174 246.395C83.5407 246.689 83.5152 246.92 83.5152 247.098C83.5152 247.303 83.5663 247.456 83.6685 247.571C83.7708 247.686 83.8986 247.738 84.0648 247.738C84.3843 247.738 84.755 247.584 85.1384 247.239C85.5219 246.932 86.0331 246.37 86.6722 245.552L87.1579 245.808C86.1865 247.086 85.3557 247.968 84.64 248.492C83.937 249.003 83.1956 249.271 82.4543 249.271C81.9558 249.271 81.5596 249.144 81.2912 248.875C81.0228 248.632 80.8949 248.249 80.8949 247.763C80.8949 247.546 80.9333 247.252 81.01 246.881C81.0739 246.523 81.2017 246.076 81.3679 245.539L84.5121 235.186L84.4866 235.199ZM66.8863 249.169L67.6915 244.35H68.1516C68.2795 245.692 68.6629 246.728 69.3148 247.482C69.9794 248.223 70.8358 248.607 71.8967 248.607C72.7403 248.607 73.4305 248.338 73.9929 247.814C74.5297 247.303 74.8109 246.626 74.8109 245.82C74.8109 244.9 74.1718 243.737 72.8936 242.331C72.8297 242.254 72.7786 242.19 72.7403 242.152C72.6636 242.075 72.5613 241.96 72.4207 241.794C70.8997 240.107 70.1456 238.688 70.1456 237.525C70.1456 236.541 70.5546 235.71 71.3598 235.045C72.1651 234.368 73.162 234.01 74.3507 234.01C75.0154 234.01 75.6928 234.138 76.3958 234.381C77.0988 234.636 77.5206 234.751 77.6356 234.751C77.904 234.751 78.1213 234.7 78.2875 234.572C78.4664 234.47 78.5942 234.291 78.6454 234.061H79.016L78.3897 238.624H77.9552C77.9552 238.624 77.9552 238.496 77.9424 238.394C77.9424 238.317 77.9296 238.241 77.9296 238.215C77.9296 237.256 77.6101 236.426 76.9582 235.748C76.3063 235.071 75.5522 234.726 74.6831 234.726C73.9545 234.726 73.4049 234.905 72.9831 235.25C72.5869 235.595 72.3696 236.068 72.3696 236.669C72.3696 237.525 72.9831 238.611 74.2229 239.928C74.274 239.979 74.3252 240.043 74.3635 240.081C75.5139 241.296 76.2808 242.241 76.6386 242.932C77.0093 243.622 77.1883 244.325 77.1883 245.053C77.1883 246.28 76.6898 247.277 75.7056 248.095C74.7214 248.901 73.4688 249.31 71.9478 249.31C71.3471 249.31 70.6441 249.182 69.8516 248.914C69.0464 248.658 68.5734 248.517 68.4201 248.517C68.2411 248.517 68.0622 248.581 67.8832 248.696C67.6915 248.824 67.5381 248.99 67.4359 249.182H66.899L66.8863 249.169ZM50.3724 248.939L53.6573 238.266C53.8746 237.64 53.9896 237.193 54.0535 236.962C54.1046 236.745 54.1302 236.553 54.1302 236.413C54.1302 236.055 53.9896 235.799 53.6956 235.659C53.4017 235.505 52.9159 235.416 52.2257 235.416H51.9701V234.956C52.9287 234.879 53.8362 234.764 54.7309 234.611C55.6129 234.457 56.4565 234.253 57.2873 234.01L55.0888 241.308C56.776 238.803 58.2842 236.95 59.6263 235.787C60.9556 234.611 62.1954 234.01 63.333 234.01C63.9593 234.01 64.4322 234.163 64.7773 234.457C65.1096 234.738 65.263 235.147 65.263 235.672C65.263 235.978 65.2374 236.336 65.1607 236.745C65.0841 237.154 64.9562 237.627 64.8029 238.151L62.6555 245.335C62.6555 245.335 62.5916 245.501 62.5533 245.654C62.3488 246.255 62.2338 246.715 62.2338 247.073C62.2338 247.29 62.2849 247.456 62.3744 247.571C62.4766 247.712 62.6044 247.763 62.7706 247.763C63.0901 247.763 63.448 247.61 63.8442 247.265C64.2405 246.958 64.7517 246.395 65.3908 245.577L65.8637 245.833C64.9179 247.111 64.0871 247.993 63.3713 248.517C62.6683 249.041 61.9398 249.297 61.2368 249.297C60.7255 249.297 60.3549 249.182 60.0864 248.914C59.8436 248.671 59.703 248.287 59.703 247.789C59.703 247.571 59.7541 247.252 59.8308 246.856C59.9075 246.447 60.0225 246.025 60.1631 245.565L62.336 238.445C62.4766 237.998 62.5789 237.589 62.6428 237.256C62.7195 236.924 62.7578 236.643 62.7578 236.426C62.7578 236.106 62.6683 235.876 62.5405 235.723C62.4127 235.569 62.1826 235.48 61.9014 235.48C60.6488 235.48 59.0511 236.822 57.0955 239.481C55.14 242.152 53.6956 245.309 52.7242 248.952H50.3468L50.3724 248.939ZM43.5598 233.997C45.1703 233.997 46.4612 234.496 47.4198 235.493C48.3913 236.464 48.8642 237.768 48.8642 239.378C48.8642 240.656 48.5574 241.947 47.9311 243.264C47.3048 244.593 46.4612 245.769 45.3748 246.792C44.544 247.597 43.6365 248.185 42.6523 248.62C41.6681 249.029 40.6584 249.259 39.6486 249.259C38.0765 249.259 36.7983 248.773 35.8397 247.801C34.8811 246.817 34.3954 245.526 34.3954 243.941C34.3954 242.663 34.7149 241.347 35.3284 240.017C35.9419 238.701 36.7983 237.512 37.8975 236.477C38.7028 235.697 39.5975 235.084 40.5945 234.662C41.5786 234.227 42.5628 233.997 43.547 233.997H43.5598ZM43.7132 234.675C42.9079 234.675 42.1538 234.917 41.4508 235.403C40.7478 235.914 40.0576 236.669 39.393 237.717C38.6516 238.867 38.0637 240.145 37.6036 241.551C37.1434 242.983 36.9261 244.223 36.9261 245.322C36.9261 246.306 37.169 247.124 37.6547 247.725C38.1404 248.313 38.7667 248.632 39.5591 248.632C40.3516 248.632 41.0929 248.364 41.8087 247.865C42.5117 247.367 43.2019 246.6 43.841 245.565C44.5951 244.402 45.1958 243.111 45.656 241.679C46.1161 240.235 46.3462 238.995 46.3462 237.921C46.3462 236.937 46.1033 236.157 45.6049 235.556C45.1192 234.956 44.4929 234.662 43.7132 234.662V234.675ZM31.2383 243.711L31.7112 244.044C30.5098 245.769 29.0654 247.111 27.391 247.993C25.7166 248.901 23.8505 249.348 21.8182 249.348C19.1852 249.348 17.0635 248.568 15.4274 246.983C13.7914 245.424 12.9734 243.379 12.9734 240.835C12.9734 239.429 13.2162 238.036 13.7403 236.656C14.2643 235.263 15.0056 233.959 15.9898 232.719C17.4725 230.814 19.2747 229.332 21.3581 228.233C23.4543 227.146 25.5505 226.596 27.6594 226.596C28.7587 226.596 29.8835 226.737 31.0338 227.018C32.1969 227.299 32.8232 227.44 32.9255 227.44C33.2322 227.44 33.5134 227.363 33.7563 227.236C33.9991 227.108 34.2548 226.89 34.4976 226.622H34.9578L33.6413 233.294H33.1939C33.1939 233.217 33.1939 233.077 33.2067 232.872C33.2067 232.693 33.2322 232.54 33.2322 232.425C33.2322 230.853 32.7593 229.651 31.8263 228.808C30.8932 227.964 29.5639 227.542 27.8256 227.542C26.5091 227.542 25.2565 227.849 24.055 228.475C22.8408 229.102 21.7032 230.022 20.6168 231.262C19.3897 232.629 18.4183 234.202 17.7026 235.991C16.974 237.781 16.6161 239.481 16.6161 241.117C16.6161 243.149 17.2169 244.759 18.4311 245.974C19.6454 247.175 21.2686 247.776 23.3009 247.776C24.7325 247.776 26.1001 247.431 27.391 246.766C28.6948 246.114 29.9474 245.079 31.1872 243.699L31.2383 243.711ZM5.81564 239.148L6.33969 239.225C5.57279 242.088 4.80589 245.539 4.06456 249.54C3.2721 253.822 2.33904 255.969 1.26538 255.969C0.818024 255.969 0.498484 255.828 0.306759 255.598C0.115035 255.343 0 254.959 0 254.435C0 253.86 0.741334 251.866 2.18566 248.492C3.6172 245.092 4.85702 241.973 5.82842 239.148H5.81564ZM9.06218 234.738C9.06218 235.135 8.88323 235.493 8.57647 235.787C8.24415 236.068 7.84792 236.234 7.38778 236.234C6.92764 236.234 6.53141 236.081 6.22465 235.799C5.90511 235.518 5.72617 235.16 5.72617 234.751C5.72617 234.342 5.90511 233.972 6.22465 233.69C6.53141 233.422 6.94042 233.269 7.38778 233.269C7.83514 233.269 8.24415 233.422 8.57647 233.703C8.88323 233.972 9.06218 234.342 9.06218 234.751" fill="#21211F"/>
<path fill-rule="evenodd" clip-rule="evenodd" d="M117.144 234.163L113.782 245.13L113.757 245.219C113.501 245.961 113.373 246.498 113.373 246.856C113.373 247.073 113.425 247.239 113.527 247.354C113.629 247.482 113.757 247.559 113.923 247.559C114.23 247.559 114.6 247.392 114.997 247.073C115.393 246.753 115.904 246.178 116.543 245.373L117.016 245.628C116.058 246.881 115.227 247.776 114.524 248.3C113.808 248.824 113.092 249.067 112.389 249.067C111.878 249.067 111.494 248.965 111.239 248.709C110.983 248.441 110.855 248.083 110.855 247.571C110.855 247.354 110.894 247.047 110.983 246.638C111.06 246.229 111.175 245.795 111.316 245.335L112.389 241.781C110.689 244.299 109.168 246.153 107.852 247.303C106.535 248.479 105.295 249.054 104.171 249.054C103.532 249.054 103.046 248.913 102.726 248.619C102.394 248.325 102.241 247.904 102.241 247.328C102.241 247.06 102.279 246.715 102.356 246.293C102.445 245.897 102.56 245.424 102.714 244.925L104.874 238.074C104.899 238.011 104.925 237.921 104.95 237.806C105.193 237.001 105.359 236.477 105.359 236.234C105.359 235.058 103.966 237.295 103.289 237.947L102.535 237.295C103.148 236.515 104.976 234.521 105.858 234.38C106.74 234.227 108.823 234.355 108.58 235.071L105.18 244.606C104.989 245.156 104.899 245.59 104.835 245.897C104.771 246.191 104.733 246.459 104.733 246.677C104.733 246.983 104.81 247.213 104.95 247.367C105.104 247.52 105.308 247.584 105.602 247.584C106.842 247.584 108.44 246.268 110.395 243.609C112.351 240.95 113.808 237.78 114.779 234.138H117.144V234.163Z" fill="#21211F"/>
<path d="M269.769 17.6134V16.9871C270.702 16.9231 271.303 16.7825 271.571 16.5397C271.865 16.2968 272.006 15.7983 272.006 15.0442V3.00373C272.006 2.2496 271.865 1.75111 271.571 1.50826C271.303 1.25262 270.702 1.11202 269.769 1.04811V0.4218H278.345V1.04811C277.412 1.1248 276.812 1.2654 276.543 1.50826C276.249 1.75111 276.121 2.2496 276.121 3.00373V15.3254C276.121 15.8367 276.236 16.2074 276.479 16.4374C276.709 16.6803 277.105 16.7953 277.604 16.7953H277.987C279.687 16.7953 281.055 16.4119 282.09 15.6577C283.138 14.9036 284.02 13.6382 284.762 11.8615H285.529L285.017 14.7247L284.493 17.6006H269.782L269.769 17.6134ZM258.189 5.53453L255.786 11.6059H260.656L258.176 5.53453H258.189ZM253.306 15.0314L259.313 0.0639092H260.029L266.279 15.0314C266.612 15.7983 266.919 16.3096 267.2 16.5525C267.468 16.7953 267.89 16.9359 268.452 16.9743V17.6006H260.144V16.9743C261.256 16.9487 261.946 16.8081 262.189 16.5525C262.432 16.2968 262.394 15.7856 262.062 15.0314L261.065 12.5901H255.402L254.891 13.9578C254.393 15.1848 254.239 15.9901 254.444 16.3735C254.661 16.757 255.377 16.9487 256.604 16.9743V17.6006H251.146V16.9743C251.721 16.9487 252.143 16.8081 252.437 16.5525C252.705 16.2968 252.999 15.7856 253.319 15.0314H253.306ZM243.912 15.0314V3.00373C243.912 2.26238 243.758 1.76389 243.464 1.50826C243.17 1.2654 242.518 1.11202 241.547 1.04811V0.4218H250.405V1.04811C249.42 1.1248 248.794 1.2654 248.487 1.50826C248.181 1.75111 248.04 2.2496 248.04 3.00373V15.0314C248.04 15.7728 248.181 16.2713 248.487 16.5269C248.794 16.7698 249.433 16.9104 250.405 16.9743V17.6006H241.547V16.9743C242.531 16.9104 243.17 16.757 243.477 16.5269C243.771 16.2713 243.924 15.7856 243.924 15.0314H243.912ZM229.673 8.80668H230.683C232.037 8.80668 232.983 8.5127 233.546 7.91195C234.108 7.33677 234.389 6.31423 234.389 4.88266C234.389 3.64282 234.134 2.72253 233.61 2.14735C233.086 1.55938 232.268 1.2654 231.156 1.2654H230.989C230.504 1.2654 230.171 1.35487 229.967 1.55938C229.775 1.76389 229.673 2.08344 229.673 2.56915V8.81946V8.80668ZM225.57 15.0314V3.00373C225.57 2.2496 225.417 1.75111 225.135 1.50826C224.867 1.25262 224.266 1.11202 223.333 1.04811V0.4218H231.603C233.929 0.4218 235.706 0.805255 236.907 1.55938C238.122 2.31351 238.722 3.42553 238.722 4.88266C238.722 6.44204 238.083 7.64354 236.792 8.46157C236.217 8.81946 235.527 9.10066 234.734 9.30517L238.799 15.0442C239.374 15.8239 239.783 16.348 240.064 16.5908C240.346 16.8465 240.652 16.9743 240.972 16.9871V17.6134H235.706L230.465 9.67585H229.673V15.0442C229.673 15.7856 229.813 16.2841 230.107 16.5397C230.389 16.7825 230.989 16.9231 231.922 16.9871V17.6134H223.346V16.9871C224.279 16.9231 224.88 16.7698 225.148 16.5397C225.429 16.2968 225.583 15.7983 225.583 15.0442L225.57 15.0314ZM211.587 5.54732L209.184 11.6187H214.054L211.574 5.54732H211.587ZM206.704 15.0442L212.686 0.0639092H213.402L219.639 15.0314C219.972 15.7983 220.278 16.3096 220.56 16.5525C220.841 16.7953 221.25 16.9359 221.825 16.9743V17.6006H213.504V16.9743C214.629 16.9487 215.306 16.8081 215.549 16.5525C215.792 16.2968 215.754 15.7856 215.409 15.0314L214.412 12.5901H208.762L208.251 13.9578C207.74 15.1848 207.599 15.9901 207.816 16.3735C208.034 16.757 208.749 16.9487 209.964 16.9743V17.6006H204.506V16.9743C205.068 16.9487 205.503 16.8081 205.784 16.5525C206.052 16.2968 206.346 15.7856 206.666 15.0314L206.704 15.0442ZM201.758 5.52175C201.374 4.09019 200.735 2.9526 199.853 2.09622C198.971 1.25262 197.974 0.818037 196.875 0.818037C196.019 0.818037 195.341 1.04811 194.83 1.50826C194.306 1.95562 194.05 2.55637 194.05 3.29771C194.05 4.00071 194.319 4.61424 194.856 5.12552C195.38 5.61122 196.377 6.17363 197.808 6.77437C199.726 7.60519 201.106 8.47435 201.937 9.36908C202.78 10.2766 203.189 11.3375 203.189 12.5773C203.189 14.2645 202.627 15.6066 201.477 16.5908C200.339 17.5878 198.805 18.0863 196.862 18.0863C195.802 18.0863 194.587 17.8307 193.207 17.3577C192.811 17.2043 192.504 17.166 192.312 17.2427C192.133 17.3194 191.98 17.5367 191.878 17.8946L191.814 18.0991H191.034V11.7976H191.788C192.069 13.4337 192.683 14.7502 193.641 15.7472C194.6 16.7442 195.725 17.2427 197.003 17.2427C197.962 17.2427 198.729 16.9743 199.329 16.4374C199.904 15.9134 200.211 15.1976 200.211 14.3284C200.211 13.6127 199.917 13.0119 199.368 12.5134C198.805 12.0021 197.783 11.427 196.287 10.7751C194.511 10.021 193.232 9.17736 192.453 8.29541C191.66 7.40068 191.277 6.31423 191.277 5.06161C191.277 3.515 191.788 2.30073 192.798 1.39322C193.808 0.48571 195.162 0.0383455 196.888 0.0383455C197.783 0.0255637 198.831 0.255637 200.032 0.715783C200.518 0.920292 200.863 0.984201 201.093 0.90751C201.323 0.830819 201.515 0.613528 201.668 0.230073L201.758 0H202.486V5.52175H201.771H201.758ZM173.574 17.6134V16.9871C174.507 16.9231 175.095 16.7825 175.389 16.5397C175.67 16.2968 175.811 15.7983 175.811 15.0442V3.00373C175.811 2.2496 175.67 1.75111 175.389 1.50826C175.108 1.25262 174.507 1.11202 173.574 1.04811V0.4218H188.235V5.52175H187.621C187.43 4.00071 186.931 2.90148 186.113 2.2496C185.295 1.59773 184.03 1.2654 182.317 1.2654H181.23C180.745 1.2654 180.412 1.35487 180.221 1.55938C180.029 1.76389 179.927 2.08344 179.927 2.56915V8.39766H180.374C181.524 8.39766 182.394 8.11646 182.956 7.5285C183.518 6.95332 183.889 5.96912 184.068 4.60146H184.733V13.1653H184.068C183.889 11.7465 183.518 10.7495 182.956 10.1232C182.394 9.53525 181.524 9.22848 180.387 9.22848H179.94V15.3126C179.94 15.8239 180.055 16.1946 180.297 16.4247C180.528 16.6675 180.911 16.7825 181.409 16.7825H182.01C183.774 16.7825 185.18 16.4374 186.228 15.7472C187.263 15.0698 188.12 13.9322 188.784 12.3345H189.487L188.976 14.9547L188.452 17.5878H173.587L173.574 17.6134ZM161.802 8.81946H162.799C164.154 8.81946 165.113 8.52548 165.675 7.92474C166.238 7.34955 166.519 6.32701 166.519 4.89544C166.519 3.6556 166.25 2.73531 165.739 2.16013C165.215 1.57217 164.397 1.27818 163.272 1.27818H163.119C162.633 1.27818 162.301 1.36766 162.109 1.57217C161.905 1.77667 161.815 2.09622 161.815 2.58193V8.81946H161.802ZM157.7 15.0442V3.00373C157.7 2.2496 157.546 1.75111 157.278 1.50826C156.997 1.25262 156.396 1.11202 155.475 1.04811V0.4218H163.745C166.071 0.4218 167.848 0.805255 169.062 1.55938C170.264 2.31351 170.877 3.42553 170.877 4.88266C170.877 6.44204 170.226 7.64354 168.935 8.46157C168.372 8.81946 167.682 9.10066 166.877 9.30517L170.941 15.0442C171.516 15.8239 171.951 16.348 172.219 16.5908C172.488 16.8465 172.807 16.9743 173.127 16.9871V17.6134H167.874L162.633 9.67585H161.841V15.0442C161.841 15.7856 161.981 16.2841 162.263 16.5397C162.531 16.7825 163.144 16.9231 164.065 16.9871V17.6134H155.488V16.9871C156.409 16.9231 157.022 16.7698 157.29 16.5397C157.572 16.2968 157.712 15.7983 157.712 15.0442H157.7ZM146.03 9.04954H146.413C147.794 9.04954 148.765 8.75556 149.34 8.15481C149.903 7.54128 150.184 6.48039 150.184 5.02326C150.184 3.74508 149.954 2.78644 149.494 2.19848C149.034 1.58495 148.305 1.29097 147.334 1.29097C146.848 1.29097 146.516 1.38044 146.324 1.58495C146.119 1.78946 146.03 2.109 146.03 2.59471V9.03676V9.04954ZM141.914 15.0442V3.00373C141.914 2.2496 141.774 1.75111 141.492 1.50826C141.211 1.25262 140.61 1.11202 139.677 1.04811V0.4218H147.743C149.941 0.4218 151.628 0.805255 152.791 1.58495C153.942 2.35186 154.517 3.47666 154.517 4.95935C154.517 6.67212 153.903 7.92474 152.676 8.70443C151.449 9.48412 149.506 9.86757 146.848 9.86757H146.017V15.0187C146.017 15.76 146.158 16.2585 146.439 16.5141C146.72 16.757 147.321 16.8976 148.254 16.9615V17.5878H139.665V16.9615C140.598 16.8976 141.198 16.7442 141.48 16.5141C141.761 16.2713 141.901 15.7728 141.901 15.0187L141.914 15.0442ZM119.022 14.4307C119.022 15.4149 119.188 16.054 119.508 16.3863C119.815 16.7059 120.505 16.8976 121.553 16.9615V17.5878H115.686V16.9615C116.619 16.8976 117.22 16.7059 117.501 16.3863C117.782 16.0668 117.923 15.4021 117.923 14.4307V3.59169C117.923 2.60749 117.77 1.95562 117.488 1.62329C117.195 1.29097 116.555 1.11202 115.61 1.04811V0.4218H122.039L127.215 12.4239L132.302 0.4218H138.655V1.04811C137.735 1.1248 137.121 1.2654 136.84 1.50826C136.559 1.75111 136.418 2.23682 136.418 3.00373V15.0314C136.418 15.7728 136.559 16.2713 136.84 16.5269C137.121 16.7698 137.735 16.9104 138.655 16.9743V17.6006H130.283V16.9743C131.216 16.9104 131.817 16.7698 132.085 16.5269C132.379 16.2841 132.52 15.7856 132.52 15.0314V2.22404L126.129 17.6134H125.439L119.022 2.70975V14.4563V14.4307ZM98.6867 17.5878V16.9615C99.6198 16.8976 100.221 16.757 100.502 16.5141C100.796 16.2713 100.924 15.7728 100.924 15.0187V3.00373C100.924 2.2496 100.783 1.75111 100.502 1.50826C100.233 1.25262 99.6198 1.11202 98.6867 1.04811V0.4218H113.347V5.52175H112.734C112.529 4.00071 112.044 2.90148 111.226 2.2496C110.42 1.59773 109.142 1.2654 107.429 1.2654H106.343C105.857 1.2654 105.512 1.35487 105.32 1.55938C105.129 1.76389 105.026 2.08344 105.026 2.56915V8.39766H105.474C106.637 8.39766 107.493 8.11646 108.056 7.5285C108.618 6.95332 108.989 5.96912 109.155 4.60146H109.82V13.1653H109.155C108.976 11.7465 108.618 10.7495 108.043 10.1232C107.468 9.53525 106.611 9.22848 105.461 9.22848H105.014V15.3126C105.014 15.8239 105.129 16.1946 105.384 16.4247C105.614 16.6675 105.985 16.7825 106.496 16.7825H107.084C108.848 16.7825 110.254 16.4374 111.302 15.7472C112.338 15.0698 113.181 13.9322 113.846 12.3345H114.562L114.05 14.9547L113.526 17.5878H98.6612H98.6867ZM82.0323 17.2299C83.5277 17.2299 84.6525 16.5397 85.4066 15.2104C86.1479 13.8683 86.5314 11.8488 86.5314 9.19014C86.5314 6.53152 86.1479 4.34582 85.4066 2.9526C84.6525 1.55938 83.5277 0.856383 82.0323 0.856383C80.5368 0.856383 79.412 1.57217 78.6707 2.9526C77.9166 4.34582 77.5331 6.41648 77.5331 9.19014C77.5331 11.9638 77.9166 13.8683 78.6707 15.2104C79.4248 16.5525 80.5368 17.2299 82.0323 17.2299ZM82.0323 18.0735C79.3992 18.0735 77.2264 17.2427 75.5648 15.5938C73.8648 13.9322 73.034 11.7976 73.034 9.20292C73.034 6.60821 73.8648 4.2947 75.5648 2.59471C77.2136 0.90751 79.3865 0.0383455 82.0195 0.0383455C84.6525 0.0383455 86.8254 0.90751 88.4998 2.62028C90.1869 4.32026 91.0177 6.53152 91.0177 9.22848C91.0177 11.9254 90.1869 13.9578 88.4998 15.6194C86.8254 17.2683 84.6525 18.0991 82.0195 18.0991L82.0323 18.0735ZM63.3583 9.03676H63.7545C65.1349 9.03676 66.0936 8.74277 66.6687 8.14203C67.2311 7.5285 67.5251 6.46761 67.5251 5.01048C67.5251 3.7323 67.295 2.77366 66.8349 2.18569C66.3748 1.57217 65.6462 1.27818 64.662 1.27818C64.1763 1.27818 63.844 1.36766 63.6523 1.57217C63.4605 1.77667 63.3583 2.09622 63.3583 2.58193V9.03676V9.03676ZM59.2298 15.0314V3.00373C59.2298 2.2496 59.0892 1.75111 58.808 1.50826C58.5268 1.25262 57.9261 1.11202 56.993 1.04811V0.4218H65.0583C67.2695 0.4218 68.9439 0.805255 70.107 1.58495C71.2573 2.35186 71.8325 3.47666 71.8325 4.95935C71.8325 6.67212 71.2062 7.92474 69.992 8.70443C68.7649 9.48412 66.8349 9.86757 64.1763 9.86757H63.3455V15.0187C63.3455 15.76 63.4733 16.2585 63.7673 16.5141C64.0485 16.757 64.6492 16.8976 65.5823 16.9615V17.5878H57.0058V16.9615C57.9389 16.8976 58.5268 16.7442 58.8208 16.5141C59.102 16.2713 59.2426 15.7728 59.2426 15.0187L59.2298 15.0314ZM54.0788 11.3886C54.0788 13.6382 53.542 15.3254 52.4428 16.4374C51.3436 17.5367 49.6436 18.0863 47.394 18.0863C45.1445 18.0863 43.5979 17.5367 42.4348 16.4374C41.2844 15.3382 40.6965 13.766 40.6965 11.7337V3.00373C40.6965 2.2496 40.5686 1.75111 40.313 1.50826C40.0446 1.25262 39.495 1.11202 38.6514 1.04811V0.4218H47.0489V1.04811C46.1159 1.1248 45.5279 1.2654 45.2339 1.50826C44.9527 1.75111 44.8122 2.23682 44.8122 3.00373V11.8999C44.8122 13.5999 45.1189 14.8397 45.7069 15.645C46.3076 16.4502 47.2279 16.872 48.4805 16.872C50.0271 16.872 51.1774 16.4119 51.8932 15.5044C52.6089 14.5969 52.9796 13.1525 52.9796 11.1713V3.59169C52.9796 2.60749 52.8135 1.95562 52.4939 1.63607C52.1744 1.31653 51.4969 1.1248 50.4489 1.04811V0.4218H56.0728V1.04811C55.2547 1.09924 54.7051 1.30375 54.4623 1.61051C54.2194 1.93006 54.0788 2.59471 54.0788 3.59169V11.4014V11.3886ZM26.8667 8.7939H27.8637C29.2186 8.7939 30.1772 8.49992 30.7268 7.89917C31.2892 7.32399 31.5704 6.30144 31.5704 4.86988C31.5704 3.63004 31.3147 2.70975 30.7907 2.13457C30.2794 1.5466 29.4486 1.25262 28.3366 1.25262H28.1833C27.6975 1.25262 27.3652 1.34209 27.1735 1.5466C26.9818 1.75111 26.8795 2.07066 26.8795 2.55637V8.81946L26.8667 8.7939ZM22.7638 15.0187V3.00373C22.7638 2.2496 22.6232 1.75111 22.3293 1.50826C22.0609 1.25262 21.4473 1.11202 20.5271 1.04811V0.4218H28.7968C31.123 0.4218 32.8997 0.805255 34.1011 1.55938C35.3026 2.31351 35.9289 3.42553 35.9289 4.88266C35.9289 6.44204 35.2771 7.64354 33.9861 8.46157C33.4109 8.81946 32.7335 9.10066 31.9283 9.30517L35.98 15.0442C36.5552 15.8239 36.9898 16.348 37.2582 16.5908C37.5266 16.8465 37.8334 16.9743 38.1657 16.9871V17.6134H32.8997L27.672 9.67585H26.8795V15.0442C26.8795 15.7856 27.0329 16.2841 27.3141 16.5397C27.5825 16.7825 28.196 16.9231 29.1163 16.9871V17.6134H20.5398V16.9871C21.4729 16.9231 22.0736 16.7698 22.342 16.5397C22.636 16.2968 22.7766 15.7983 22.7766 15.0442L22.7638 15.0187ZM10.2762 18.1119C7.56648 18.1119 5.35526 17.281 3.62974 15.6322C1.90422 13.9705 1.04785 11.836 1.04785 9.24126C1.04785 6.64655 1.89144 4.33304 3.5914 2.63306C5.25301 0.90751 7.4131 0.0383455 10.0589 0.0383455C11.1198 0.0383455 12.3979 0.345109 13.9062 0.971419C14.5325 1.22706 14.9926 1.30375 15.2994 1.20149C15.6061 1.11202 15.8362 0.818037 16.0151 0.319546L16.079 0.102255H16.7565V6.09693H16.143C15.5039 4.51199 14.6603 3.25937 13.5994 2.30073C12.5385 1.36766 11.4393 0.881946 10.2762 0.881946C8.69127 0.881946 7.51536 1.59773 6.71011 2.97817C5.90487 4.37139 5.50864 6.44204 5.50864 9.2157C5.50864 11.9894 5.91765 13.8939 6.73568 15.2359C7.5537 16.578 8.76796 17.2555 10.3912 17.2555C10.9664 17.2555 11.516 17.1788 12.0145 17.0637C12.3724 16.9743 12.6408 16.8081 12.8325 16.5397C13.0242 16.2713 13.1137 15.9389 13.1137 15.5427V12.8841C13.1137 12.1427 12.9603 11.6442 12.628 11.3886C12.2957 11.133 11.6055 10.9924 10.5446 10.9412V10.3149H19.2745V10.9412C18.3797 11.0563 17.779 11.248 17.5106 11.4781C17.2294 11.7209 17.0888 12.1939 17.0888 12.8841V16.6036C15.1971 17.6006 12.922 18.0991 10.2634 18.0991" fill="#313C76"/>
<path fill-rule="evenodd" clip-rule="evenodd" d="M4 86.0394L4.08947 102.004L116.581 58.0472L210.832 101.723H291.587L160.831 44H106.739L4 86.0394Z" fill="#333E7C"/>
<path fill-rule="evenodd" clip-rule="evenodd" d="M241.447 178.191L248.4 161.191C251.531 163.377 254.305 164.962 256.746 165.972C259.2 166.982 261.488 167.48 263.61 167.48C265.118 167.48 266.281 167.199 267.125 166.637C267.994 166.074 268.416 165.307 268.416 164.323C268.416 162.649 266.281 161.358 261.999 160.476C260.606 160.169 259.533 159.939 258.766 159.76C254.241 158.661 250.764 156.692 248.361 153.88C245.958 151.068 244.757 147.553 244.757 143.348C244.757 136.829 247.096 131.525 251.761 127.435C256.427 123.344 262.562 121.299 270.129 121.299C273.631 121.299 277.043 121.76 280.418 122.68C283.779 123.587 287.192 124.968 290.617 126.821L283.984 142.696C281.9 141.15 279.791 139.961 277.657 139.156C275.548 138.338 273.503 137.941 271.509 137.941C269.988 137.941 268.825 138.197 267.981 138.695C267.138 139.207 266.741 139.923 266.741 140.83C266.741 142.543 269.771 144.064 275.829 145.342C276.788 145.572 277.542 145.738 278.066 145.853C282.233 146.786 285.518 148.716 287.933 151.618C290.336 154.507 291.538 158.022 291.538 162.15C291.538 168.861 289.122 174.344 284.265 178.6C279.421 182.857 273.107 184.978 265.335 184.978C261.36 184.978 257.385 184.416 253.41 183.278C249.422 182.141 245.447 180.454 241.472 178.191" fill="#212120"/>
<path fill-rule="evenodd" clip-rule="evenodd" d="M234.635 140.664C233.076 136.817 230.801 133.417 227.823 130.464C224.755 127.499 221.24 125.211 217.278 123.664C213.328 122.092 209.072 121.312 204.522 121.312C199.972 121.312 195.702 122.092 191.753 123.664C187.791 125.223 184.301 127.499 181.259 130.464C178.256 133.391 175.968 136.791 174.434 140.626C172.887 144.473 172.108 148.653 172.108 153.152C172.108 157.651 172.874 161.805 174.434 165.627C175.968 169.436 178.256 172.81 181.259 175.737C184.327 178.754 187.842 181.042 191.804 182.614C195.754 184.186 199.997 184.979 204.522 184.979C209.047 184.979 213.213 184.186 217.188 182.614C221.151 181.042 224.653 178.779 227.695 175.827C230.737 172.81 233.038 169.385 234.61 165.55C236.182 161.741 236.974 157.587 236.974 153.152C236.974 148.716 236.195 144.524 234.623 140.677L234.635 140.664ZM211.935 161.46C210.056 163.543 207.602 164.592 204.535 164.592C201.467 164.592 198.987 163.543 197.096 161.46C195.217 159.364 194.284 156.603 194.284 153.139C194.284 149.675 195.217 146.889 197.096 144.78C198.975 142.645 201.454 141.584 204.535 141.584C207.615 141.584 210.069 142.645 211.935 144.754C213.801 146.876 214.734 149.662 214.734 153.152C214.734 156.641 213.801 159.377 211.935 161.473V161.46Z" fill="#212120"/>
<path fill-rule="evenodd" clip-rule="evenodd" d="M109.26 184.979V121.312H130.644V148.448L145.164 121.312H171.085L151.861 152.666L173.782 184.979H146.084L130.644 158.354V184.979H109.26Z" fill="#212120"/>
<path fill-rule="evenodd" clip-rule="evenodd" d="M66.4546 140.664C64.908 136.829 62.6201 133.429 59.6548 130.464C56.5872 127.499 53.0722 125.211 49.1099 123.651C45.1604 122.092 40.9041 121.312 36.3411 121.312C31.778 121.312 27.5217 122.092 23.5722 123.651C19.6099 125.211 16.1205 127.486 13.0785 130.464C10.0876 133.391 7.79968 136.778 6.24032 140.626C4.69374 144.473 3.91406 148.653 3.91406 153.152C3.91406 157.651 4.69374 161.805 6.24032 165.627C7.7869 169.436 10.0748 172.81 13.0785 175.737C16.1461 178.754 19.661 181.042 23.6233 182.614C27.5729 184.186 31.8164 184.979 36.3411 184.979C40.8658 184.979 45.0454 184.186 49.0077 182.614C52.97 181.042 56.4849 178.779 59.5142 175.827C62.5562 172.81 64.8569 169.385 66.429 165.55C68.0012 161.741 68.7936 157.6 68.7936 153.152C68.7936 148.704 68.0139 144.524 66.4418 140.677L66.4546 140.664ZM43.7544 161.46C41.8883 163.543 39.4214 164.579 36.3538 164.579C33.2862 164.579 30.8066 163.531 28.9277 161.46C27.0488 159.364 26.1158 156.603 26.1158 153.139C26.1158 149.675 27.0488 146.889 28.9277 144.78C30.8066 142.645 33.2862 141.584 36.3538 141.584C39.4214 141.584 41.8883 142.645 43.7544 144.754C45.6077 146.876 46.5536 149.675 46.5536 153.152C46.5536 156.628 45.6205 159.364 43.7544 161.473V161.46Z" fill="#212120"/>
<path d="M99.0851 121.312H77.7015V184.979H99.0851V121.312Z" fill="#212120"/>
<path d="M280.469 43.765C274.385 43.765 269.438 48.7116 269.438 54.7957C269.438 60.8799 274.385 65.8392 280.469 65.8392C286.553 65.8392 291.512 60.8927 291.512 54.7957C291.512 48.6988 286.566 43.765 280.469 43.765ZM280.469 65.0723C274.807 65.0723 270.205 60.4581 270.205 54.7957C270.205 49.1334 274.807 44.5319 280.469 44.5319C286.131 44.5319 290.745 49.1334 290.745 54.7957C290.745 60.4581 286.131 65.0723 280.469 65.0723Z" fill="#221A16"/>
<path d="M275.649 60.8286V48.7626H280.787C282.078 48.7626 283.011 48.8776 283.599 49.0949C284.187 49.3122 284.66 49.6956 285.005 50.2452C285.35 50.8077 285.529 51.434 285.529 52.1497C285.529 53.0573 285.261 53.8114 284.724 54.3993C284.2 54.9873 283.395 55.358 282.347 55.5114C282.871 55.8181 283.305 56.1632 283.65 56.5339C283.996 56.9046 284.456 57.5565 285.031 58.4895L286.514 60.8414H283.599L281.835 58.2211C281.209 57.2753 280.787 56.6873 280.545 56.4444C280.314 56.2016 280.072 56.0354 279.816 55.9459C279.56 55.8565 279.151 55.8053 278.589 55.8053H278.103V60.8414H275.662L275.649 60.8286ZM278.09 53.8625H279.893C281.069 53.8625 281.797 53.8114 282.091 53.7219C282.385 53.6197 282.602 53.4535 282.769 53.2106C282.935 52.9678 283.011 52.6738 283.011 52.3031C283.011 51.8941 282.896 51.5746 282.692 51.3189C282.475 51.0633 282.168 50.9099 281.772 50.846C281.567 50.8204 280.979 50.8076 279.995 50.8076H278.09V53.8625Z" fill="#221A16"/>
<path style="mix-blend-mode:multiply" opacity="0.5" d="M116.519 57.812L83.6059 70.6705L72.1152 57.9014L97.0011 47.7271L116.519 57.812Z" fill="url(#paint0_linear_628_8138)"/>
<path d="M291.922 192.482H3.51758V213.866H291.922V192.482Z" fill="#212120"/>
<defs>
<linearGradient id="paint0_linear_628_8138" x1="88.6291" y1="64.5224" x2="97.9343" y2="53.6197" gradientUnits="userSpaceOnUse">
<stop stop-color="white"/>
<stop offset="0.87" stop-color="#222221"/>
</linearGradient>
</defs>
</svg>
