<svg width="55" height="39" viewBox="0 0 55 39" fill="none" xmlns="http://www.w3.org/2000/svg">
<path fill-rule="evenodd" clip-rule="evenodd" d="M45.0046 25.2588L46.2754 22.1214C46.8712 22.5185 47.3477 22.8362 47.8243 22.9951C48.2612 23.1937 48.6981 23.2731 49.0952 23.2731C49.3732 23.2731 49.5718 23.2334 49.7306 23.1142C49.8895 22.9951 49.9689 22.8759 49.9689 22.6774C49.9689 22.3596 49.5718 22.1214 48.7775 21.9625C48.5392 21.9228 48.3406 21.8831 48.1818 21.8433C47.3477 21.6448 46.7123 21.2873 46.2754 20.771C45.8386 20.2548 45.6003 19.6193 45.6003 18.825C45.6003 17.6336 46.0372 16.6407 46.9109 15.8861C47.7846 15.1315 48.8966 14.7344 50.3264 14.7344C50.9618 14.7344 51.5972 14.8138 52.2327 14.9727C52.8681 15.1315 53.5036 15.4095 54.0993 15.7272L52.8681 18.6662C52.471 18.3881 52.0738 18.1499 51.7164 17.991C51.3192 17.8321 50.9618 17.7527 50.5647 17.7527C50.2867 17.7527 50.0484 17.7924 49.9292 17.9116C49.7704 17.991 49.6909 18.1499 49.6909 18.3087C49.6909 18.6264 50.2469 18.9044 51.359 19.1427C51.5178 19.1824 51.6767 19.2222 51.7561 19.2222C52.5107 19.381 53.1461 19.7385 53.583 20.2945C54.0199 20.8108 54.2581 21.4859 54.2581 22.2405C54.2581 23.4717 53.8213 24.5043 52.9078 25.2985C51.9944 26.0928 50.8427 26.49 49.4129 26.49C48.6583 26.49 47.9435 26.3709 47.1889 26.1723C46.474 25.9737 45.7591 25.656 45.0046 25.2588ZM44.3294 20.6122C44.3294 21.4462 44.1706 22.2008 43.8925 22.9157C43.6145 23.6305 43.1777 24.266 42.6217 24.822C42.0657 25.378 41.4302 25.7751 40.6756 26.0928C39.9608 26.3709 39.1665 26.5297 38.3325 26.5297C37.4984 26.5297 36.7041 26.3709 35.9893 26.0928C35.2744 25.8148 34.5993 25.378 34.0432 24.822C33.4872 24.266 33.0504 23.6702 32.7724 22.9554C32.4944 22.2405 32.3355 21.4859 32.3355 20.6519C32.3355 19.8179 32.4944 19.0633 32.7724 18.3484C33.0504 17.6336 33.4872 16.9981 34.0432 16.4818C34.5993 15.9258 35.2347 15.5287 35.9893 15.211C36.7041 14.933 37.4984 14.7741 38.3325 14.7741C39.1665 14.7741 39.9608 14.933 40.6756 15.211C41.3905 15.489 42.0657 15.9258 42.6217 16.4818C43.1777 17.0378 43.5748 17.6733 43.8925 18.3484C44.2103 19.0236 44.3294 19.7782 44.3294 20.6122ZM38.3325 22.7171C38.8885 22.7171 39.365 22.5185 39.6828 22.1214C40.0402 21.7242 40.1991 21.2079 40.1991 20.5725C40.1991 19.937 40.0402 19.4207 39.6828 19.0236C39.3253 18.6264 38.8885 18.4279 38.3325 18.4279C37.7764 18.4279 37.2999 18.6264 36.9424 19.0236C36.585 19.4207 36.4261 19.937 36.4261 20.5725C36.4261 21.2079 36.585 21.7242 36.9424 22.1214C37.2999 22.5185 37.7764 22.7171 38.3325 22.7171ZM21.0167 26.212V14.9727H24.9882V19.7385L27.53 14.9727H32.0972L28.7214 20.493L32.5738 26.1723H27.6889L24.9882 21.4859V26.1723L21.0167 26.212ZM14.7418 14.9727H18.8324V26.212H14.7418V14.9727ZM12.9546 20.6122C12.9546 21.4462 12.7957 22.2008 12.5177 22.9157C12.2397 23.6305 11.8029 24.266 11.2469 24.822C10.6909 25.378 10.0554 25.7751 9.30083 26.0928C8.58596 26.3709 7.79166 26.5297 6.95765 26.5297C6.12364 26.5297 5.32934 26.3709 4.61447 26.0928C3.8996 25.8148 3.22445 25.378 2.66844 24.822C2.11243 24.266 1.67556 23.6702 1.39756 22.9554C1.11955 22.2405 0.960693 21.4859 0.960693 20.6519C0.960693 19.8179 1.11955 19.0633 1.39756 18.3484C1.67556 17.6336 2.11243 16.9981 2.66844 16.4818C3.22445 15.9258 3.85988 15.5287 4.61447 15.211C5.32934 14.933 6.12364 14.7741 6.95765 14.7741C7.79166 14.7741 8.58596 14.933 9.30083 15.211C10.0157 15.489 10.6909 15.9258 11.2469 16.4818C11.8029 17.0378 12.2 17.6733 12.5177 18.3484C12.8355 19.0236 12.9546 19.7782 12.9546 20.6122ZM6.95765 22.7171C7.51366 22.7171 7.99024 22.5185 8.30796 22.1214C8.66539 21.7242 8.82425 21.2079 8.82425 20.5725C8.82425 19.937 8.66539 19.4207 8.30796 19.0236C7.95052 18.6264 7.51366 18.4279 6.95765 18.4279C6.40164 18.4279 5.92506 18.6264 5.56763 19.0236C5.21019 19.4207 5.05133 19.937 5.05133 20.5725C5.05133 21.2079 5.21019 21.7242 5.56763 22.1214C5.92506 22.5185 6.40164 22.7171 6.95765 22.7171Z" fill="#171714"/>
<path fill-rule="evenodd" clip-rule="evenodd" d="M1.04019 8.14187V11.1205L21.8508 2.97893L39.2857 11.0411H54.2185L30.0321 0.397461H20.0239L1.04019 8.14187Z" fill="#2247E6"/>
<path d="M18.1971 1.15186L1.23882 8.10197L1.27853 11.0012L21.8906 2.97874L18.1971 1.15186Z" fill="#2247E6"/>
<path opacity="0.5" d="M21.8906 2.97874L17.9588 4.44819L18.0779 3.41561L18.1971 1.15186L21.8906 2.97874Z" fill="url(#paint0_linear_188_155)"/>
<path d="M54.2979 28.5156H0.960693V32.0105H54.2979V28.5156Z" fill="#2247E6"/>
<path d="M37.8957 34.0759C38.6106 34.0361 39.2063 34.2744 39.6829 34.7113C40.1197 35.1482 40.358 35.7439 40.358 36.419C40.358 37.0148 40.1992 37.5311 39.8417 37.9679C39.4049 38.5239 38.7694 38.8416 37.9354 38.8416C37.1014 38.8416 36.466 38.5636 36.0291 38.0076C35.6717 37.5708 35.5128 37.0545 35.5128 36.419C35.5128 35.7439 35.7511 35.1879 36.2277 34.7113C36.6645 34.2744 37.2205 34.0361 37.8957 34.0759ZM37.9354 34.2744C37.4986 34.2744 37.1808 34.473 36.9823 34.9099C36.8234 35.2673 36.7043 35.7836 36.7043 36.419C36.7043 37.2133 36.8234 37.7693 37.1014 38.1665C37.3 38.4445 37.578 38.5636 37.8957 38.5636C38.134 38.5636 38.3326 38.5239 38.4914 38.4048C38.69 38.2459 38.8489 38.0473 38.968 37.7296C39.0871 37.4119 39.1269 37.0148 39.1269 36.4985C39.1269 35.9027 39.0871 35.4262 38.968 35.1482C38.8489 34.8304 38.7297 34.6319 38.5311 34.5127C38.3723 34.3539 38.1737 34.2744 37.9354 34.2744ZM44.2501 33.9964L44.2898 35.585H44.1309C44.0515 35.1879 43.8927 34.8702 43.6544 34.5921C43.3764 34.3539 43.0984 34.2347 42.7806 34.2347C42.5424 34.2347 42.3835 34.3141 42.2246 34.4333C42.0658 34.5524 41.9863 34.7113 41.9863 34.8702C41.9863 34.9893 42.0261 35.0687 42.0658 35.1482C42.1452 35.2673 42.2643 35.3864 42.4232 35.5056C42.5423 35.585 42.7806 35.7439 43.1778 35.9027C43.7338 36.1807 44.131 36.419 44.2898 36.697C44.4884 36.9353 44.6075 37.2133 44.6075 37.5311C44.6075 37.9282 44.4487 38.2856 44.1707 38.5636C43.8529 38.8814 43.4558 38.9608 42.9792 38.9608C42.8204 38.9608 42.6615 38.9608 42.5821 38.9211C42.4629 38.8814 42.2643 38.8416 42.1055 38.7225C41.9863 38.6828 41.9069 38.6431 41.8275 38.6431C41.748 38.6431 41.7083 38.6828 41.6289 38.7225C41.5495 38.7622 41.5098 38.8416 41.47 38.9608H41.3509V37.1339H41.47C41.5892 37.6105 41.7878 38.0473 42.0658 38.2856C42.3835 38.5636 42.6615 38.6828 43.0189 38.6828C43.2969 38.6828 43.4955 38.6034 43.6544 38.4445C43.8132 38.2856 43.8927 38.1268 43.8927 37.9679C43.8927 37.8488 43.8529 37.7296 43.8132 37.6105C43.7338 37.4913 43.6544 37.4119 43.5352 37.2928C43.4161 37.1736 43.1778 37.0545 42.8998 36.9353C42.4629 36.697 42.1452 36.5382 41.9466 36.3793C41.7481 36.2205 41.5892 36.0616 41.5098 35.9027C41.3906 35.7042 41.3509 35.5453 41.3509 35.307C41.3509 34.9496 41.5098 34.5921 41.7481 34.3141C42.0261 34.0361 42.3835 33.917 42.8204 33.917C42.9792 33.917 43.1381 33.917 43.2572 33.9567C43.3764 33.9964 43.5352 34.0361 43.6544 34.1156C43.8132 34.195 43.9324 34.2347 44.0118 34.2347C44.0912 34.2347 44.1309 34.2347 44.1707 34.195C44.2104 34.1553 44.2501 34.0759 44.2898 33.917V33.9964H44.2501ZM19.1105 34.1156V34.2347C18.912 34.2744 18.7531 34.3539 18.6737 34.5127C18.5545 34.6319 18.3957 34.8702 18.2368 35.3467L16.5688 39.0005H16.4496L14.7816 35.1482C14.583 34.7113 14.4242 34.4333 14.3845 34.3539C14.305 34.2744 14.1859 34.2347 14.027 34.195V34.0759H16.3305V34.195H16.2511C16.0525 34.195 15.8936 34.2347 15.8539 34.2744C15.8142 34.3141 15.7745 34.3539 15.7745 34.4333C15.7745 34.473 15.7745 34.5127 15.8142 34.5921C15.8142 34.6716 15.8936 34.8304 16.0128 35.029L17.0454 37.4119L17.9985 35.307C18.1177 35.029 18.1971 34.9099 18.2368 34.7907C18.2765 34.6716 18.2765 34.6319 18.2765 34.5524C18.2765 34.473 18.2765 34.3936 18.2368 34.3539C18.1971 34.3141 18.1574 34.2347 18.0779 34.2347C17.9588 34.195 17.8397 34.1553 17.6808 34.1553V34.0759L19.1105 34.1156ZM21.5729 37.5311H19.8651L19.6665 37.9679C19.5871 38.1268 19.5474 38.2856 19.5474 38.3254C19.5474 38.4842 19.5871 38.5636 19.7063 38.6431C19.7857 38.6828 19.9445 38.7225 20.1431 38.7225V38.8416H18.5545V38.7225C18.7531 38.6828 18.8722 38.6034 18.9517 38.4842C19.0311 38.3651 19.2297 38.1268 19.3488 37.7693L21.0566 33.9567H21.136L22.8835 37.8885C23.0423 38.2459 23.2012 38.4842 23.2806 38.6034C23.36 38.6828 23.4792 38.7225 23.638 38.7225V38.8416H21.3346V38.7225H21.4537C21.6523 38.7225 21.7714 38.6828 21.8112 38.6431C21.8509 38.6034 21.8906 38.5636 21.8906 38.4842C21.8906 38.4445 21.8906 38.4048 21.8509 38.3651C21.8509 38.3254 21.8112 38.2459 21.7317 38.0871L21.5729 37.5311ZM21.414 37.253L20.6991 35.585L19.9843 37.253H21.414ZM12.081 37.5311H10.413L10.2144 37.9679C10.135 38.1268 10.0952 38.2856 10.0952 38.3254C10.0952 38.4842 10.135 38.5636 10.2541 38.6431C10.3335 38.6828 10.4924 38.7225 10.691 38.7225V38.8416H9.10237V38.7225C9.30095 38.6828 9.42009 38.6034 9.49952 38.4842C9.57895 38.3651 9.77753 38.1268 9.89667 37.7693L11.6044 33.9567H11.6838L13.4313 37.8885C13.5902 38.2459 13.749 38.4842 13.8284 38.6034C13.9079 38.6828 14.027 38.7225 14.1859 38.7225V38.8416H11.8824V38.7225H12.0016C12.2001 38.7225 12.3193 38.6828 12.359 38.6431C12.3987 38.6034 12.4384 38.5636 12.4384 38.4842C12.4384 38.4445 12.4384 38.4048 12.3987 38.3651C12.3987 38.3254 12.359 38.2459 12.2796 38.0871L12.081 37.5311ZM11.9618 37.253L11.247 35.585L10.5321 37.253H11.9618ZM29.1187 37.2133L28.9201 38.9211H24.6706V38.8019H24.8295C24.9883 38.8019 25.1075 38.7622 25.1869 38.7225C25.2664 38.6828 25.3061 38.6431 25.3458 38.5636C25.3855 38.5239 25.3855 38.3651 25.3855 38.1268V34.9496C25.3855 34.7113 25.3855 34.5524 25.3458 34.5127C25.3061 34.4333 25.2664 34.3936 25.1869 34.3539C25.1075 34.3141 24.9883 34.2744 24.8692 34.2744H24.7103V34.1553H27.2521V34.2744H27.0138C26.8549 34.2744 26.7358 34.3141 26.6564 34.3539C26.5769 34.3936 26.5372 34.4333 26.4975 34.5127C26.4578 34.5524 26.4578 34.7113 26.4578 34.9496V38.0076C26.4578 38.2459 26.4578 38.4048 26.4975 38.4445C26.5372 38.5239 26.5769 38.5636 26.6564 38.6034C26.7358 38.6431 26.8549 38.6431 27.0535 38.6431H27.4507C27.7287 38.6431 27.8875 38.6034 28.0861 38.4842C28.245 38.4048 28.4038 38.2459 28.523 38.0871C28.6421 37.8885 28.7613 37.6105 28.8804 37.2133H29.1187ZM29.913 34.1553H32.2959V34.2744H32.1768C32.0179 34.2744 31.859 34.2744 31.8193 34.3141C31.7399 34.3539 31.7002 34.3936 31.6605 34.473C31.6207 34.5524 31.6207 34.7113 31.6207 34.9496V37.2133C31.6207 37.6105 31.6605 37.8885 31.7002 38.0473C31.7399 38.2062 31.859 38.2856 32.0179 38.3651C32.1768 38.4445 32.3356 38.4842 32.5739 38.4842C32.8122 38.4842 33.0505 38.4445 33.2093 38.3254C33.3682 38.2062 33.5271 38.0473 33.6065 37.8488C33.6859 37.6502 33.7256 37.2928 33.7256 36.8162V34.9496C33.7256 34.751 33.6859 34.5921 33.6462 34.5127C33.6065 34.4333 33.5668 34.3539 33.4873 34.3141C33.3682 34.2744 33.2491 34.2347 33.0505 34.2347V34.1156H34.6391V34.2347H34.5596C34.4405 34.2347 34.3214 34.2744 34.2419 34.3141C34.1625 34.3539 34.0831 34.4333 34.0434 34.5524C34.0036 34.6319 34.0036 34.751 34.0036 34.9496V36.697C34.0036 37.253 33.9639 37.6105 33.8845 37.8488C33.8051 38.0871 33.6462 38.3254 33.3682 38.5239C33.0902 38.7225 32.7328 38.8416 32.2562 38.8416C31.859 38.8416 31.5413 38.8019 31.3427 38.6828C31.0647 38.5239 30.8264 38.3651 30.7073 38.1268C30.5882 37.8885 30.5087 37.6105 30.5087 37.2133V34.9496C30.5087 34.6716 30.5087 34.5127 30.469 34.473C30.4293 34.3936 30.3896 34.3539 30.3101 34.3141C30.2307 34.2744 30.1116 34.2744 29.913 34.2744V34.1553Z" fill="#171714"/>
<path d="M51.4386 0C50.2868 0 49.3734 0.913444 49.3734 2.06518C49.3734 3.21691 50.2868 4.13035 51.4386 4.13035C52.5903 4.13035 53.5037 3.21691 53.5037 2.06518C53.5037 0.953159 52.5903 0 51.4386 0ZM51.4386 4.01121C50.3663 4.01121 49.4925 3.13748 49.4925 2.06518C49.4925 0.992874 50.3663 0.119145 51.4386 0.119145C52.5109 0.119145 53.3846 0.992874 53.3846 2.06518C53.3846 3.13748 52.5109 4.01121 51.4386 4.01121Z" fill="#1F140F"/>
<path d="M50.5251 3.21688V0.953125H51.4782C51.7165 0.953125 51.9151 0.99284 51.9945 1.03255C52.1137 1.07227 52.1931 1.1517 52.2725 1.23113C52.352 1.35027 52.352 1.46942 52.352 1.58856C52.352 1.74742 52.3122 1.90628 52.1931 2.02543C52.074 2.14457 51.9548 2.224 51.7562 2.224C51.8357 2.26372 51.9548 2.34315 51.9945 2.42258C52.074 2.50201 52.1534 2.62115 52.2725 2.78001L52.5505 3.21688H51.9945L51.7165 2.7403C51.5974 2.58144 51.5179 2.46229 51.4782 2.42258C51.4385 2.34315 51.3591 2.30343 51.3194 2.30343C51.2797 2.30343 51.2002 2.26372 51.0811 2.26372H51.0016V3.21688H50.5251ZM51.0016 1.90628H51.3591C51.5974 1.90628 51.7165 1.90628 51.7562 1.86657C51.796 1.86657 51.8357 1.82685 51.8754 1.78714C51.9151 1.74742 51.9151 1.66799 51.9151 1.62828C51.9151 1.54885 51.8754 1.50913 51.8357 1.4297C51.7959 1.38999 51.7562 1.35027 51.6768 1.35027C51.6371 1.35027 51.5179 1.35027 51.3591 1.35027H51.0016V1.90628Z" fill="#1F140F"/>
<path d="M33.7258 32.4868L32.5741 33.6783H32.2961L32.6932 32.5265L33.7258 32.4868Z" fill="#273979"/>
<defs>
<linearGradient id="paint0_linear_188_155" x1="18.5988" y1="3.75719" x2="19.6946" y2="2.47412" gradientUnits="userSpaceOnUse">
<stop stop-color="#1C1C1B" stop-opacity="0"/>
<stop offset="0.8744" stop-color="#1C1C1B"/>
</linearGradient>
</defs>
</svg>
