<svg width="20" height="69" viewBox="0 0 20 69" fill="none" xmlns="http://www.w3.org/2000/svg">
<circle cx="17.5174" cy="2.07837" r="2.07831" transform="rotate(90 17.5174 2.07837)" fill="#D5D5D5"/>
<circle cx="9.79766" cy="2.07837" r="2.07831" transform="rotate(90 9.79766 2.07837)" fill="#D5D5D5"/>
<circle cx="2.07891" cy="2.07837" r="2.07831" transform="rotate(90 2.07891 2.07837)" fill="#D5D5D5"/>
<g opacity="0.8">
<circle cx="17.5174" cy="12.8855" r="2.07831" transform="rotate(90 17.5174 12.8855)" fill="#D5D5D5"/>
<circle cx="9.79766" cy="12.8855" r="2.07831" transform="rotate(90 9.79766 12.8855)" fill="#D5D5D5"/>
<circle cx="2.07891" cy="12.8855" r="2.07831" transform="rotate(90 2.07891 12.8855)" fill="#D5D5D5"/>
</g>
<g opacity="0.7">
<circle cx="17.5174" cy="23.6928" r="2.07831" transform="rotate(90 17.5174 23.6928)" fill="#D5D5D5"/>
<circle cx="9.79766" cy="23.6928" r="2.07831" transform="rotate(90 9.79766 23.6928)" fill="#D5D5D5"/>
<circle cx="2.07891" cy="23.6928" r="2.07831" transform="rotate(90 2.07891 23.6928)" fill="#D5D5D5"/>
</g>
<g opacity="0.6">
<circle cx="17.5174" cy="34.5" r="2.07831" transform="rotate(90 17.5174 34.5)" fill="#D5D5D5"/>
<circle cx="9.79766" cy="34.5" r="2.07831" transform="rotate(90 9.79766 34.5)" fill="#D5D5D5"/>
<circle cx="2.07891" cy="34.5" r="2.07831" transform="rotate(90 2.07891 34.5)" fill="#D5D5D5"/>
</g>
<g opacity="0.5">
<circle cx="17.5174" cy="45.3072" r="2.07831" transform="rotate(90 17.5174 45.3072)" fill="#D5D5D5"/>
<circle cx="9.79766" cy="45.3072" r="2.07831" transform="rotate(90 9.79766 45.3072)" fill="#D5D5D5"/>
<circle cx="2.07891" cy="45.3072" r="2.07831" transform="rotate(90 2.07891 45.3072)" fill="#D5D5D5"/>
</g>
<g opacity="0.3">
<circle cx="17.5174" cy="56.1143" r="2.07831" transform="rotate(90 17.5174 56.1143)" fill="#D5D5D5"/>
<circle cx="9.79766" cy="56.1143" r="2.07831" transform="rotate(90 9.79766 56.1143)" fill="#D5D5D5"/>
<circle cx="2.07891" cy="56.1143" r="2.07831" transform="rotate(90 2.07891 56.1143)" fill="#D5D5D5"/>
</g>
<g opacity="0.1">
<circle cx="17.5174" cy="66.9217" r="2.07831" transform="rotate(90 17.5174 66.9217)" fill="#D5D5D5"/>
<circle cx="9.79766" cy="66.9217" r="2.07831" transform="rotate(90 9.79766 66.9217)" fill="#D5D5D5"/>
<circle cx="2.07891" cy="66.9217" r="2.07831" transform="rotate(90 2.07891 66.9217)" fill="#D5D5D5"/>
</g>
</svg>
