<svg width="93" height="92" viewBox="0 0 93 92" fill="none" xmlns="http://www.w3.org/2000/svg">
<circle cx="1.63568" cy="1.63568" r="1.63568" fill="#4453A6"/>
<circle cx="1.63568" cy="14.2538" r="1.63568" fill="#4453A6"/>
<circle cx="1.63568" cy="26.8719" r="1.63568" fill="#4453A6"/>
<circle cx="1.63568" cy="39.49" r="1.63568" fill="#4453A6"/>
<circle cx="1.63568" cy="52.1081" r="1.63568" fill="#4453A6"/>
<circle cx="1.63568" cy="64.7261" r="1.63568" fill="#4453A6"/>
<circle cx="1.63568" cy="77.3442" r="1.63568" fill="#4453A6"/>
<circle cx="1.63568" cy="89.9623" r="1.63568" fill="#4453A6"/>
<circle cx="16.5908" cy="1.63568" r="1.63568" fill="#4453A6"/>
<circle cx="16.5908" cy="14.2538" r="1.63568" fill="#4453A6"/>
<circle cx="16.5908" cy="26.8719" r="1.63568" fill="#4453A6"/>
<circle cx="16.5908" cy="39.49" r="1.63568" fill="#4453A6"/>
<circle cx="16.5908" cy="52.1081" r="1.63568" fill="#4453A6"/>
<circle cx="16.5908" cy="64.7261" r="1.63568" fill="#4453A6"/>
<circle cx="16.5908" cy="77.3442" r="1.63568" fill="#4453A6"/>
<circle cx="16.5908" cy="89.9623" r="1.63568" fill="#4453A6"/>
<circle cx="31.5449" cy="1.63568" r="1.63568" fill="#4453A6"/>
<circle cx="31.5449" cy="14.2538" r="1.63568" fill="#4453A6"/>
<circle cx="31.5449" cy="26.8719" r="1.63568" fill="#4453A6"/>
<circle cx="31.5449" cy="39.49" r="1.63568" fill="#4453A6"/>
<circle cx="31.5449" cy="52.1081" r="1.63568" fill="#4453A6"/>
<circle cx="31.5449" cy="64.7261" r="1.63568" fill="#4453A6"/>
<circle cx="31.5449" cy="77.3442" r="1.63568" fill="#4453A6"/>
<circle cx="31.5449" cy="89.9623" r="1.63568" fill="#4453A6"/>
<circle cx="46.4999" cy="1.63568" r="1.63568" fill="#4453A6"/>
<circle cx="46.4999" cy="14.2538" r="1.63568" fill="#4453A6"/>
<circle cx="46.4999" cy="26.8719" r="1.63568" fill="#4453A6"/>
<circle cx="46.4999" cy="39.49" r="1.63568" fill="#4453A6"/>
<circle cx="46.4999" cy="52.1081" r="1.63568" fill="#4453A6"/>
<circle cx="46.4999" cy="64.7261" r="1.63568" fill="#4453A6"/>
<circle cx="46.4999" cy="77.3442" r="1.63568" fill="#4453A6"/>
<circle cx="46.4999" cy="89.9623" r="1.63568" fill="#4453A6"/>
<circle cx="61.455" cy="1.63568" r="1.63568" fill="#4453A6"/>
<circle cx="61.455" cy="14.2538" r="1.63568" fill="#4453A6"/>
<circle cx="61.455" cy="26.8719" r="1.63568" fill="#4453A6"/>
<circle cx="61.455" cy="39.49" r="1.63568" fill="#4453A6"/>
<circle cx="61.455" cy="52.1081" r="1.63568" fill="#4453A6"/>
<circle cx="61.455" cy="64.7261" r="1.63568" fill="#4453A6"/>
<circle cx="61.455" cy="77.3442" r="1.63568" fill="#4453A6"/>
<circle cx="61.455" cy="89.9623" r="1.63568" fill="#4453A6"/>
<circle cx="76.4091" cy="1.63568" r="1.63568" fill="#4453A6"/>
<circle cx="76.4091" cy="14.2538" r="1.63568" fill="#4453A6"/>
<circle cx="76.4091" cy="26.8719" r="1.63568" fill="#4453A6"/>
<circle cx="76.4091" cy="39.49" r="1.63568" fill="#4453A6"/>
<circle cx="76.4091" cy="52.1081" r="1.63568" fill="#4453A6"/>
<circle cx="76.4091" cy="64.7261" r="1.63568" fill="#4453A6"/>
<circle cx="76.4091" cy="77.3442" r="1.63568" fill="#4453A6"/>
<circle cx="76.4091" cy="89.9623" r="1.63568" fill="#4453A6"/>
<circle cx="91.3642" cy="1.63568" r="1.63568" fill="#4453A6"/>
<circle cx="91.3642" cy="14.2538" r="1.63568" fill="#4453A6"/>
<circle cx="91.3642" cy="26.8719" r="1.63568" fill="#4453A6"/>
<circle cx="91.3642" cy="39.49" r="1.63568" fill="#4453A6"/>
<circle cx="91.3642" cy="52.1081" r="1.63568" fill="#4453A6"/>
<circle cx="91.3642" cy="64.7261" r="1.63568" fill="#4453A6"/>
<circle cx="91.3642" cy="77.3442" r="1.63568" fill="#4453A6"/>
<circle cx="91.3642" cy="89.9623" r="1.63568" fill="#4453A6"/>
</svg>
