<svg width="20" height="69" viewBox="0 0 20 69" fill="none" xmlns="http://www.w3.org/2000/svg">
<circle cx="17.5164" cy="2.07834" r="2.07831" transform="rotate(90 17.5164 2.07834)" fill="#D5D5D5"/>
<circle cx="9.79669" cy="2.07834" r="2.07831" transform="rotate(90 9.79669 2.07834)" fill="#D5D5D5"/>
<circle cx="2.07794" cy="2.07834" r="2.07831" transform="rotate(90 2.07794 2.07834)" fill="#D5D5D5"/>
<g opacity="0.8">
<circle cx="17.5164" cy="12.8855" r="2.07831" transform="rotate(90 17.5164 12.8855)" fill="#D5D5D5"/>
<circle cx="9.79669" cy="12.8855" r="2.07831" transform="rotate(90 9.79669 12.8855)" fill="#D5D5D5"/>
<circle cx="2.07794" cy="12.8855" r="2.07831" transform="rotate(90 2.07794 12.8855)" fill="#D5D5D5"/>
</g>
<g opacity="0.7">
<circle cx="17.5164" cy="23.6927" r="2.07831" transform="rotate(90 17.5164 23.6927)" fill="#D5D5D5"/>
<circle cx="9.79669" cy="23.6927" r="2.07831" transform="rotate(90 9.79669 23.6927)" fill="#D5D5D5"/>
<circle cx="2.07794" cy="23.6927" r="2.07831" transform="rotate(90 2.07794 23.6927)" fill="#D5D5D5"/>
</g>
<g opacity="0.6">
<circle cx="17.5164" cy="34.5" r="2.07831" transform="rotate(90 17.5164 34.5)" fill="#D5D5D5"/>
<circle cx="9.79669" cy="34.5" r="2.07831" transform="rotate(90 9.79669 34.5)" fill="#D5D5D5"/>
<circle cx="2.07794" cy="34.5" r="2.07831" transform="rotate(90 2.07794 34.5)" fill="#D5D5D5"/>
</g>
<g opacity="0.5">
<circle cx="17.5164" cy="45.3072" r="2.07831" transform="rotate(90 17.5164 45.3072)" fill="#D5D5D5"/>
<circle cx="9.79669" cy="45.3071" r="2.07831" transform="rotate(90 9.79669 45.3071)" fill="#D5D5D5"/>
<circle cx="2.07794" cy="45.3071" r="2.07831" transform="rotate(90 2.07794 45.3071)" fill="#D5D5D5"/>
</g>
<g opacity="0.3">
<circle cx="17.5164" cy="56.1143" r="2.07831" transform="rotate(90 17.5164 56.1143)" fill="#D5D5D5"/>
<circle cx="9.79669" cy="56.1143" r="2.07831" transform="rotate(90 9.79669 56.1143)" fill="#D5D5D5"/>
<circle cx="2.07794" cy="56.1143" r="2.07831" transform="rotate(90 2.07794 56.1143)" fill="#D5D5D5"/>
</g>
<g opacity="0.1">
<circle cx="17.5164" cy="66.9217" r="2.07831" transform="rotate(90 17.5164 66.9217)" fill="#D5D5D5"/>
<circle cx="9.79669" cy="66.9217" r="2.07831" transform="rotate(90 9.79669 66.9217)" fill="#D5D5D5"/>
<circle cx="2.07794" cy="66.9217" r="2.07831" transform="rotate(90 2.07794 66.9217)" fill="#D5D5D5"/>
</g>
</svg>
