<svg width="42" height="27" viewBox="0 0 42 27" fill="none" xmlns="http://www.w3.org/2000/svg">
<g clip-path="url(#clip0_491_6660)">
<path d="M41.9997 24.9128C41.9668 24.9976 41.9273 25.0814 41.8999 25.1683C41.5624 26.2323 40.644 26.9333 39.5042 26.9913C39.3815 26.9978 39.2587 26.9967 39.1349 26.9967C30.3574 26.9967 21.58 26.9967 12.8036 26.9967C12.6535 26.9967 12.4979 27.0085 12.3554 26.9741C12.0222 26.8925 11.8381 26.6746 11.871 26.33C11.9017 26.0068 12.1011 25.8243 12.4321 25.7953C12.5812 25.7824 12.7324 25.7889 12.8825 25.7889C21.5909 25.7889 30.3004 25.7889 39.0088 25.7889C39.1316 25.7889 39.2554 25.7921 39.3782 25.7889C40.187 25.7653 40.7788 25.193 40.7667 24.4501C40.7547 23.7211 40.1694 23.165 39.376 23.1575C38.3239 23.1467 37.2707 23.1543 36.2175 23.1543C34.6042 23.1543 32.991 23.1553 31.3778 23.1543C30.8868 23.1543 30.6117 22.9449 30.5996 22.5756C30.5865 22.188 30.8747 21.9508 31.3767 21.9508C33.5094 21.9486 35.6421 21.9508 37.7748 21.9508C37.9227 21.9508 38.0718 21.9508 38.2976 21.9508C37.8077 16.4829 36.2832 11.4982 32.1055 7.47109C31.9235 8.77229 31.7537 9.9597 31.5904 11.1471C31.3898 12.6061 31.2013 14.0662 30.9942 15.5242C30.8495 16.5473 29.964 17.1947 28.9502 17.0401C28.011 16.8962 27.3907 15.9998 27.5266 15.0174C27.9595 11.8879 28.3803 8.75726 28.8176 5.62879C28.8494 5.40226 28.811 5.28631 28.5886 5.20472C27.7217 4.88586 26.8603 4.55411 25.9265 4.2009C25.8706 4.74522 25.8169 5.20364 25.7764 5.66422C25.5221 8.53181 25.2657 11.3983 25.0202 14.267C24.8448 16.3272 23.1012 17.914 20.9958 17.9119C18.8872 17.9097 17.1513 16.3208 16.977 14.2616C16.7074 11.087 16.4203 7.91341 16.1397 4.73877C16.1265 4.59384 16.0959 4.45105 16.0597 4.217C15.0624 4.58095 14.1012 4.93202 13.1357 5.28524C13.2617 6.20853 13.3779 7.05561 13.493 7.90268C13.5039 7.98212 13.5226 8.06157 13.527 8.14102C13.55 8.51356 13.3374 8.79484 13.002 8.841C12.6535 8.89039 12.3598 8.65957 12.3028 8.26663C12.1384 7.12754 11.9828 5.9863 11.8217 4.84721C11.7592 4.40059 11.5608 4.20197 11.2255 4.23848C10.8824 4.27605 10.7422 4.53264 10.8068 5.00503C11.2759 8.42659 11.746 11.8482 12.2162 15.2697C12.2743 15.6959 12.4979 15.8989 12.8398 15.842C13.1554 15.7894 13.2968 15.5349 13.2398 15.128C13.0425 13.7098 12.8464 12.2905 12.6513 10.8723C12.5888 10.4224 12.7916 10.1079 13.1708 10.0585C13.5434 10.0091 13.8064 10.2517 13.8733 10.7198C14.0815 12.1906 14.2886 13.6625 14.4881 15.1345C14.6065 16.0084 13.9642 16.8715 13.0897 17.0347C12.1822 17.2044 11.2627 16.6815 11.0775 15.799C10.8857 14.8832 10.7926 13.9481 10.6622 13.0205C10.4123 11.2308 10.1668 9.44007 9.91691 7.65038C9.91362 7.62891 9.8906 7.61066 9.83581 7.53014C5.71724 11.4907 4.19716 16.4743 3.69631 21.9486C3.91769 21.9486 4.09085 21.9486 4.26511 21.9486C12.2907 21.9486 20.3153 21.9486 28.3409 21.9486C28.5053 21.9486 28.673 21.9336 28.8319 21.9636C29.1683 22.028 29.3722 22.2406 29.3546 22.582C29.3371 22.9181 29.1289 23.1188 28.7793 23.151C28.6302 23.165 28.479 23.1564 28.3288 23.1564C19.8802 23.1564 11.4304 23.1564 2.98175 23.1564C2.84476 23.1564 2.70776 23.1521 2.57187 23.1586C1.81128 23.1897 1.2392 23.749 1.23262 24.4619C1.22604 25.1726 1.79265 25.7534 2.54885 25.7867C2.97189 25.8061 3.39602 25.7921 3.82015 25.7921C5.84327 25.7921 7.86749 25.7899 9.8906 25.7942C10.4221 25.7953 10.7301 26.1507 10.58 26.5812C10.466 26.9097 10.1931 27.0031 9.8654 27.002C8.83959 26.9999 7.81488 27.002 6.78907 27.002C5.38078 27.002 3.97249 27.016 2.5642 26.9956C1.36742 26.9784 0.373397 26.2054 0.0873546 25.1232C-0.197592 24.04 0.242979 22.9052 1.22276 22.3458C1.59099 22.1354 2.02389 22.0323 2.45351 21.8692C2.56091 21.0049 2.6442 20.0859 2.79544 19.1776C3.46068 15.1817 4.80431 11.4563 7.46418 8.28488C8.05161 7.58489 8.73548 6.95898 9.40948 6.33522C9.64182 6.1205 9.70429 5.92832 9.65607 5.63952C9.59689 5.28416 9.52785 4.91914 9.55415 4.56485C9.61004 3.83695 10.1602 3.23573 10.8463 3.06932C11.574 2.89325 12.3083 3.17024 12.7477 3.79186C12.8091 3.87882 12.8628 3.97115 12.9088 4.04415C13.9281 3.69309 14.9298 3.34953 15.9687 2.99095C15.9468 2.68283 15.9161 2.34035 15.9008 1.9968C15.8493 0.86844 16.634 0.0235161 17.7825 0.0160009C19.9284 0.00204407 22.0753 0.000970473 24.2223 0.0160009C25.3522 0.0235161 26.1424 0.861999 26.0997 1.96244C26.0865 2.30814 26.0514 2.65384 26.0262 2.99202C27.0531 3.34417 28.0647 3.69094 29.0905 4.04308C29.484 3.33236 30.0823 2.93942 30.9514 3.04248C31.8709 3.15199 32.6304 4.00336 32.4288 4.88264C32.2249 5.77587 32.5395 6.29013 33.1937 6.88383C35.6563 9.12229 37.1841 11.9469 38.2077 15.0475C38.8949 17.1303 39.3245 19.2657 39.4746 21.4526C39.4845 21.5997 39.5064 21.7446 39.525 21.9121C39.6291 21.9379 39.7311 21.9669 39.8341 21.9862C40.9311 22.202 41.6303 22.8354 41.9273 23.8929C41.9416 23.9423 41.9756 23.9852 41.9997 24.0314V24.915V24.9128ZM21.0024 1.21521C20.1005 1.21521 19.1985 1.21521 18.2965 1.21521C17.1699 1.21521 17.0603 1.34512 17.1611 2.46059C17.5118 6.32663 17.8625 10.1927 18.199 14.0598C18.3316 15.5864 19.5097 16.7084 21.0123 16.6965C22.5072 16.6847 23.671 15.5746 23.7949 14.0694C23.9319 12.4021 24.093 10.7359 24.2398 9.06968C24.4481 6.72279 24.6574 4.37697 24.8558 2.029C24.9051 1.44174 24.6771 1.21843 24.0765 1.21629C23.0518 1.21307 22.026 1.21629 21.0013 1.21521H21.0024ZM31.2243 4.76025C31.2408 4.48862 31.0479 4.23848 30.7465 4.23096C30.3739 4.22237 30.2248 4.44139 30.1788 4.78064C29.7108 8.21295 29.2374 11.6442 28.765 15.0754C28.7014 15.5403 28.8428 15.8022 29.1891 15.8387C29.5267 15.8742 29.7218 15.6734 29.7831 15.23C30.0484 13.3222 30.3169 11.4155 30.5799 9.50771C30.7958 7.94455 31.0051 6.38031 31.2254 4.76025H31.2243Z" fill="white"/>
</g>
<defs>
<clipPath id="clip0_491_6660">
<rect width="42" height="27" fill="white"/>
</clipPath>
</defs>
</svg>
