<svg width="38" height="41" viewBox="0 0 38 41" fill="none" xmlns="http://www.w3.org/2000/svg">
<g clip-path="url(#clip0_491_6651)">
<path d="M37.349 8.8569C37.8185 9.08548 38.0011 9.37173 38 9.90366C37.9852 16.965 37.9863 24.0275 37.9989 31.0889C37.9989 31.5887 37.8227 31.8654 37.3849 32.079C31.5946 34.8967 25.8095 37.7273 20.0245 40.5567C19.747 40.6924 19.4801 40.8526 19.2079 41L18.7658 40.9861C18.6582 40.9156 18.5569 40.8302 18.4419 40.7746C12.5123 37.8757 6.58374 34.9747 0.646768 32.0908C0.251111 31.8985 0 31.4926 0 31.0483C0.0137161 23.9997 0.0137161 16.9512 0 9.90259C0 9.45825 0.251111 9.05236 0.646768 8.8601C6.58374 5.9783 12.5123 3.0762 18.4419 0.177309C18.5389 0.130311 18.6254 0.0619513 18.7151 0H19.287C19.3651 0.0555425 19.441 0.112153 19.5254 0.15381M19.594 39.4074C19.7692 39.3294 19.8768 39.2857 19.9802 39.2355C25.4835 36.548 30.9847 33.8574 36.4912 31.1775C36.7518 31.0504 36.8078 30.8955 36.8078 30.6274C36.8014 24.0723 36.8025 17.5162 36.8025 10.9611C36.8025 10.834 36.8025 10.7058 36.8025 10.5467C36.7096 10.5787 36.66 10.5905 36.6157 10.6129C34.9318 11.4343 33.25 12.2631 31.5608 13.0739C31.3192 13.1892 31.334 13.3601 31.334 13.5609C31.335 15.7634 31.3255 17.9669 31.3424 20.1694C31.3456 20.633 31.1799 20.9096 30.7663 21.1051C29.4422 21.7321 28.1307 22.3847 26.814 23.0266C26.067 23.3909 25.7093 23.1719 25.7093 22.343C25.7082 20.1534 25.703 17.9637 25.7156 15.7741C25.7167 15.4921 25.6291 15.35 25.3801 15.2283C19.6373 12.4298 13.8987 9.62488 8.16109 6.81464C7.95008 6.71103 7.78654 6.7121 7.57552 6.81678C6.21657 7.4929 4.84918 8.153 3.48601 8.81844C3.00489 9.05343 2.52482 9.29056 1.992 9.55225C2.15976 9.63876 2.27371 9.70178 2.38977 9.7584C5.98234 11.5155 9.57491 13.2715 13.1675 15.0285C13.713 15.2956 14.2616 15.5551 14.8008 15.836C15.1257 16.0059 15.2312 16.3487 15.0856 16.6467C14.9485 16.9277 14.633 17.0398 14.3049 16.9159C14.1825 16.8689 14.0664 16.8027 13.9482 16.745C9.84501 14.7401 5.74284 12.7342 1.6396 10.7293C1.50561 10.6642 1.36845 10.6054 1.21124 10.5339C1.20491 10.6492 1.19963 10.7015 1.19963 10.755C1.19963 17.404 1.20069 24.0531 1.1933 30.7011C1.1933 30.9607 1.29565 31.0643 1.50877 31.1679C7.00155 33.8457 12.4912 36.531 17.9818 39.2141C18.1042 39.2739 18.233 39.3209 18.3859 39.3839C18.3965 39.2557 18.4081 39.1778 18.4081 39.0987C18.4081 32.4764 18.4081 25.854 18.4134 19.2327C18.4134 18.9987 18.3385 18.8738 18.1253 18.7798C17.6906 18.5886 17.2644 18.3771 16.8455 18.1528C16.5279 17.9819 16.4277 17.6283 16.5807 17.3357C16.7263 17.0569 17.0354 16.9565 17.3657 17.0879C17.4754 17.1317 17.5915 17.1733 17.6864 17.2417C18.5748 17.8943 19.4146 17.8377 20.3505 17.2492C21.2178 16.7033 22.1853 16.3199 23.1148 15.8777C23.5559 15.6683 23.9684 15.8649 24.0222 16.2964C24.0655 16.6403 23.8766 16.8358 23.5865 16.9768C22.3984 17.5525 21.222 18.1517 20.0255 18.7071C19.6805 18.8674 19.5887 19.066 19.5898 19.4313C19.6003 25.9063 19.5972 32.3824 19.5972 38.8573V39.4074H19.594ZM19.2332 1.35759C19.0981 1.29243 18.8744 1.31166 18.732 1.37895C17.3984 2.01448 16.0732 2.66925 14.7459 3.31867C14.5518 3.41373 14.3576 3.50879 14.1149 3.62842C14.2363 3.70106 14.2985 3.74592 14.3661 3.77903C19.8768 6.47391 25.3875 9.16879 30.9045 11.8509C31.0375 11.9149 31.2612 11.8808 31.4047 11.8124C32.5842 11.2516 33.7543 10.6727 34.9276 10.0981C35.2694 9.93143 35.6102 9.76374 36.0091 9.5672C35.8962 9.50098 35.8529 9.47214 35.8054 9.44864M29.7239 12.6413C29.5277 12.5355 29.4063 12.464 29.2797 12.402C28.0347 11.7932 26.7887 11.1865 25.5436 10.5776C21.394 8.54928 17.2443 6.51984 13.0926 4.49681C12.948 4.42631 12.7381 4.33766 12.6209 4.39213C11.5152 4.91017 10.4232 5.45705 9.26999 6.02423C9.87245 6.3201 10.4148 6.58713 10.9592 6.85309C15.9624 9.29803 20.9667 11.744 25.9731 14.1815C26.1081 14.2477 26.316 14.2883 26.4405 14.2306C27.5156 13.7275 28.5791 13.1999 29.725 12.6402L29.7239 12.6413ZM30.1449 13.7724C29.1162 14.2744 28.175 14.7465 27.2202 15.1909C26.9648 15.3105 26.8836 15.4558 26.8857 15.7346C26.8973 17.5621 26.891 19.3907 26.8931 21.2183C26.8931 21.3411 26.9089 21.465 26.9216 21.636C27.982 21.119 28.9906 20.6351 29.9866 20.1256C30.0816 20.0776 30.1364 19.865 30.1375 19.7283C30.148 18.3141 30.1438 16.8999 30.1438 15.4846C30.1438 14.9409 30.1438 14.3973 30.1438 13.7724H30.1449Z" fill="black"/>
<path d="M3.13275 24.4419C3.27308 24.49 3.40285 24.5188 3.51891 24.5754C5.16696 25.3765 6.81606 26.1765 8.45672 26.9947C8.62764 27.0802 8.8165 27.2607 8.86293 27.4348C8.9083 27.6046 8.84077 27.9122 8.71627 27.9955C8.54007 28.113 8.22776 28.1729 8.0389 28.0949C7.36998 27.8204 6.72743 27.4775 6.07644 27.1592C5.03402 26.6497 3.98948 26.1434 2.95233 25.6243C2.48493 25.3904 2.40474 24.883 2.7793 24.5957C2.87848 24.5199 3.01353 24.4921 3.13275 24.443V24.4419Z" fill="black"/>
<path d="M6.42216 29.0956C6.42216 29.6318 6.03284 29.948 5.66356 29.7814C4.70554 29.3467 3.75912 28.8831 2.82432 28.4003C2.53628 28.2508 2.45504 27.9485 2.61858 27.6409C2.77578 27.345 3.03956 27.2157 3.34764 27.3599C4.27717 27.7957 5.20143 28.2433 6.11302 28.7154C6.2734 28.7987 6.36308 29.0209 6.42216 29.0967V29.0956Z" fill="black"/>
</g>
<defs>
<clipPath id="clip0_491_6651">
<rect width="38" height="41" fill="white"/>
</clipPath>
</defs>
</svg>
