<svg width="35" height="35" viewBox="0 0 35 35" fill="none" xmlns="http://www.w3.org/2000/svg">
<g clip-path="url(#clip0_491_6655)">
<path d="M0 13.6076C0.172526 13.4314 0.326796 13.2323 0.519404 13.0817C5.98273 8.81064 11.4497 4.54509 16.9167 0.277707C17.3859 -0.0884072 17.6041 -0.0929722 18.0678 0.268577C20.3398 2.04072 22.6101 3.81377 24.8812 5.58591C24.9962 5.67539 25.1112 5.76303 25.2901 5.9009C25.2901 5.43253 25.2901 5.02989 25.2901 4.62817C25.2901 4.18354 25.2856 3.73982 25.292 3.29519C25.2993 2.81494 25.5576 2.54013 26.0259 2.53739C27.313 2.531 28.6001 2.53009 29.8872 2.53739C30.3646 2.54013 30.6184 2.82134 30.6193 3.32988C30.622 5.45992 30.6257 7.58995 30.6138 9.71999C30.612 9.97655 30.6932 10.1308 30.8931 10.2851C32.1118 11.2219 33.3213 12.1705 34.5317 13.1191C35.136 13.593 35.1515 13.9399 34.6029 14.4895C33.9274 15.167 33.2391 15.8326 32.5773 16.5237C32.2085 16.9081 31.8379 17.1354 31.3039 16.7538C31.3039 17.9735 31.3039 19.1449 31.3039 20.3163C31.3039 20.897 31.3076 21.4786 31.303 22.0592C31.2994 22.5258 31.0209 22.8326 30.6184 22.8316C30.2149 22.8298 29.9392 22.523 29.9383 22.0547C29.9356 20.0159 29.9411 17.9763 29.9283 15.9375C29.9283 15.7933 29.8479 15.5988 29.7384 15.513C25.6973 12.344 21.6479 9.18497 17.5995 6.02507C17.573 6.00498 17.542 5.99037 17.4863 5.95842C16.6337 6.62308 15.7729 7.29323 14.913 7.96429C11.7172 10.4586 8.52316 12.9539 5.3264 15.4473C5.17031 15.5687 5.05164 15.6755 5.05164 15.9111C5.05986 21.7543 5.05803 27.5984 5.05894 33.4417C5.05894 33.4873 5.06442 33.532 5.06807 33.6051H6.97225V33.2518C6.97225 31.3271 6.97225 29.4016 6.97225 27.477C6.97225 27.3748 6.96769 27.2716 6.97681 27.1693C7.01059 26.7986 7.29539 26.5293 7.65049 26.5266C8.00467 26.5238 8.30408 26.7904 8.33238 27.1593C8.35155 27.4085 8.33968 27.6605 8.33968 27.9107C8.33968 29.8006 8.33968 31.6905 8.33968 33.6069H29.9374V33.2472C29.9374 31.3564 29.9374 29.4655 29.9374 27.5747C29.9374 27.4834 29.9347 27.3921 29.9392 27.3017C29.9584 26.8872 30.2405 26.596 30.6211 26.596C31.0009 26.596 31.2966 26.8872 31.3012 27.3017C31.3112 28.1216 31.3048 28.9424 31.3048 29.7623C31.3048 31.0368 31.3048 32.3114 31.3048 33.6334H32.2304C32.8457 33.6334 33.461 33.6334 34.0762 33.6334C34.6057 33.6334 34.8704 33.784 34.9708 34.141C35.0612 34.4606 34.9233 34.7226 34.518 35.0002H0C0 34.7043 0 34.4076 0 34.1118C0.200824 33.7411 0.507537 33.6133 0.928355 33.6261C1.72435 33.6507 2.52126 33.6334 3.31816 33.6334C3.43774 33.6334 3.55733 33.6334 3.67508 33.6334V16.7939C3.058 17.0542 2.93112 17.0268 2.44093 16.5365C2.06301 16.1585 1.67962 15.7851 1.30718 15.4007C0.866282 14.9451 0.435423 14.4786 0 14.0175C0 13.8806 0 13.7445 0 13.6076ZM3.24879 15.324C3.3136 15.2774 3.4058 15.2144 3.49343 15.146C7.96268 11.6574 12.431 8.1688 16.8994 4.68021C17.3832 4.30314 17.6086 4.29858 18.0787 4.6656C22.359 8.0072 26.6384 11.3488 30.9187 14.6904C31.2035 14.9122 31.4911 15.1314 31.7311 15.3176C32.2405 14.81 32.7206 14.3316 33.2218 13.8331C27.9995 9.7556 22.7543 5.66169 17.4982 1.55774C12.2338 5.66717 6.98959 9.76199 1.76634 13.8395C2.27205 14.3453 2.75129 14.8246 3.2497 15.3231L3.24879 15.324ZM29.2354 8.9832V3.92516H26.6576C26.6576 4.6866 26.7014 5.42796 26.6439 6.16202C26.5964 6.76186 26.7836 7.14532 27.2874 7.48131C27.9538 7.92503 28.5618 8.45731 29.2354 8.98411V8.9832Z" fill="white"/>
<path d="M24.7421 22.1696C24.7421 24.2869 24.7421 26.4051 24.7421 28.5223C24.7421 29.1578 24.5093 29.3951 23.8822 29.3951C19.6238 29.3951 15.3664 29.3951 11.108 29.3951C10.4964 29.3951 10.2526 29.155 10.2526 28.5524C10.2517 24.2832 10.2517 20.014 10.2526 15.7448C10.2526 15.1559 10.4973 14.9067 11.0778 14.9067C15.359 14.9058 19.6393 14.9058 23.9205 14.9067C24.4993 14.9067 24.7412 15.1559 24.7421 15.7485C24.7439 17.8886 24.7421 20.0296 24.7421 22.1696ZM11.6429 16.2881V21.4401H16.7949V16.2881H11.6429ZM18.2044 16.2881V21.4401H23.3564V16.2881H18.2044ZM16.7931 28.0119V22.8571H11.6447V28.0119H16.7931ZM18.2025 22.8516V28.0037H23.3582V22.8516H18.2025Z" fill="white"/>
<path d="M7.65562 25.2026C7.28044 25.2026 6.9646 24.8776 6.97281 24.4987C6.98103 24.1262 7.27953 23.8359 7.65288 23.835C8.02714 23.835 8.32655 24.1244 8.33568 24.4969C8.34572 24.8758 8.03079 25.2026 7.6547 25.2026H7.65562Z" fill="white"/>
<path d="M31.3017 24.8685C31.3108 25.2437 30.9959 25.566 30.6198 25.5651C30.2565 25.5651 29.9498 25.2638 29.9406 24.8995C29.9315 24.5233 30.2464 24.202 30.6225 24.2029C30.9858 24.2029 31.2934 24.5042 31.3026 24.8675L31.3017 24.8685Z" fill="white"/>
</g>
<defs>
<clipPath id="clip0_491_6655">
<rect width="35" height="35" fill="white"/>
</clipPath>
</defs>
</svg>
