<svg width="45" height="34" viewBox="0 0 45 34" fill="none" xmlns="http://www.w3.org/2000/svg">
<g clip-path="url(#clip0_491_6669)">
<path d="M0.0129553 31.1963C0.0129553 31.7751 0.00351485 32.1875 0.0157875 32.5981C0.0280601 33.021 0.277289 33.2862 0.647357 33.2976C1.03725 33.31 1.30441 33.0382 1.32707 32.6C1.33368 32.4679 1.32707 32.3358 1.32896 32.2027C1.34784 31.0195 1.20907 29.8229 1.74529 28.6919C1.89822 28.3697 1.73301 28.0504 1.38844 27.8945C1.04008 27.7368 0.695503 27.9012 0.501029 28.3061C0.0346685 29.2764 -0.0351912 30.3105 0.0129553 31.1963ZM15.4699 30.8864C15.4699 31.4462 15.4633 32.007 15.4718 32.5667C15.4784 33.0258 15.7238 33.2948 16.1156 33.2986C16.5027 33.3024 16.7764 33.0286 16.7812 32.581C16.7925 31.4605 16.7925 30.3399 16.7812 29.2194C16.7764 28.7803 16.4857 28.4942 16.1081 28.5028C15.7323 28.5113 15.4784 28.8003 15.4718 29.2498C15.4642 29.7954 15.4699 30.3409 15.4699 30.8864ZM28.2042 30.895C28.2042 31.4405 28.1994 31.986 28.206 32.5306C28.2117 33.0258 28.4496 33.2986 28.8574 33.2976C29.2587 33.2976 29.5136 33.0163 29.5173 32.5268C29.5258 31.4358 29.5268 30.3456 29.5164 29.2546C29.5117 28.7841 29.2237 28.4885 28.8329 28.5018C28.4581 28.5151 28.2136 28.8022 28.207 29.2574C28.1994 29.803 28.2051 30.3485 28.2051 30.8931L28.2042 30.895Z" fill="white"/>
<path d="M45.0003 20.448C44.9409 20.6419 44.8804 20.8358 44.821 21.0287C44.298 22.7129 42.7705 23.8458 41.0193 23.8134C40.6974 23.8077 40.467 23.88 40.2537 24.1204C40.0998 24.2934 39.8675 24.3951 39.7155 24.57C39.589 24.7154 39.4625 24.9207 39.4644 25.0984C39.4654 25.2182 39.6702 25.3807 39.8175 25.4463C40.4198 25.7124 41.041 25.9338 41.6442 26.1971C43.3775 26.9555 44.3017 28.3022 44.4443 30.1907C44.4754 30.6013 44.466 31.0166 44.4518 31.4281C44.4358 31.8834 44.1762 32.1486 43.7844 32.1457C43.387 32.1419 43.1576 31.8815 43.1415 31.4148C43.1245 30.9149 43.1509 30.4093 43.0849 29.916C42.9319 28.7784 42.3079 27.9591 41.2751 27.483C40.6247 27.1836 39.9506 26.9365 39.2586 26.6542C38.8178 27.4022 38.2041 27.8793 37.3158 27.8812C36.4425 27.8822 35.8232 27.4431 35.3625 26.6533C34.6007 26.9641 33.836 27.2748 33.1978 27.5353C33.2139 29.4209 33.2346 31.2124 33.2413 33.0049C33.2431 33.4658 32.9854 33.7291 32.5908 33.7262C32.2019 33.7234 31.9404 33.4573 31.9356 32.9973C31.9234 31.8036 31.913 30.6089 31.9356 29.4152C31.9687 27.6446 31.2512 26.2912 29.7936 25.3132C28.9657 24.7582 28.1528 24.1813 27.2805 23.5777C26.952 24.0187 26.6329 24.4502 26.311 24.8798C25.7804 25.5879 25.3669 25.7228 24.523 25.4653C24.0793 25.3294 23.6346 25.1934 23.1409 25.0414C23.1409 25.2552 23.1409 25.413 23.1409 25.5717C23.1409 28.0485 23.1409 30.5253 23.1409 33.0011C23.1409 33.1484 23.1494 33.2976 23.1277 33.4421C23.0786 33.7757 22.8784 33.9695 22.5433 33.9962C22.21 34.0218 21.9693 33.8707 21.8777 33.5447C21.8305 33.3784 21.8277 33.1959 21.8277 33.021C21.8249 30.5443 21.8258 28.0675 21.8258 25.5917C21.8258 25.431 21.8258 25.2704 21.8258 25.0471C21.3245 25.2001 20.8714 25.3408 20.4163 25.4776C19.6224 25.7171 19.1919 25.5755 18.6982 24.915C18.3734 24.4816 18.0496 24.0473 17.6767 23.5473C16.5354 24.3884 15.3638 25.1488 14.3159 26.0545C13.3992 26.8472 13.048 27.9791 13.0386 29.1947C13.0282 30.4625 13.0405 31.7304 13.0329 32.9982C13.0301 33.462 12.7828 33.73 12.3882 33.7253C12.0039 33.7205 11.7386 33.4962 11.7443 33.137C11.7717 31.3578 11.8302 29.5786 11.8982 27.7995C11.9076 27.5457 12.0332 27.2958 12.1219 26.985C11.3705 26.7065 10.6351 26.4337 9.85999 26.1467C9.40212 26.9945 8.74223 27.5267 7.76892 27.5277C6.81165 27.5296 6.14043 27.0429 5.65991 26.1382C4.93111 26.4185 4.19758 26.6884 3.47255 26.984C2.99014 27.1808 2.59553 27.0677 2.46242 26.6438C2.33969 26.2532 2.50301 25.9652 2.85514 25.8198C3.58395 25.5175 4.3288 25.2543 5.05855 24.9539C5.22376 24.8855 5.43051 24.7563 5.48054 24.608C5.56456 24.3571 5.48054 24.129 5.22848 23.9275C4.44209 23.3012 3.98611 22.4544 3.79258 21.4735C3.4886 21.4289 3.19311 21.4184 2.91745 21.3405C1.61183 20.9708 0.997253 19.4701 1.6883 18.2954C1.862 18.0007 1.89032 17.7318 1.84312 17.421C1.7676 16.9258 1.69585 16.4307 1.6241 15.9355C1.32673 13.8769 2.5285 12.0122 4.50723 11.4106C5.051 11.2452 5.5674 10.9905 6.09701 10.7795C9.9931 9.23035 14.0856 12.1491 13.9175 16.3575C13.9071 16.6074 13.9062 16.8602 13.8731 17.1074C13.8089 17.5788 13.8429 17.9912 14.0808 18.4512C14.7615 19.7704 13.7948 21.35 12.3192 21.4251C12.2031 21.4308 12.087 21.4251 11.9426 21.4251C11.8774 21.6465 11.8217 21.8556 11.7537 22.0599C11.4743 22.8944 10.9674 23.5587 10.2829 24.1052C10.1423 24.2174 10.0516 24.4588 10.0431 24.6451C10.0394 24.7392 10.2555 24.8827 10.3981 24.9378C11.1741 25.2362 11.9577 25.5147 12.7667 25.8103C13.7948 24.4075 15.3855 23.6709 16.7393 22.6302C16.9054 22.5028 16.9998 22.2766 17.1178 22.0904C17.2642 21.8594 17.3614 21.579 17.5512 21.3966C17.9637 21.0021 18.4272 20.6609 18.8587 20.2865C18.9455 20.2114 19.0125 20.0869 19.0371 19.9738C19.0682 19.8331 19.0286 19.6782 19.0484 19.5338C19.1079 19.089 18.955 18.7848 18.6 18.4835C17.5578 17.5987 16.9479 16.4402 16.6836 15.0659C16.5467 15.0393 16.4079 15.0088 16.2672 14.986C14.6104 14.7152 13.7929 12.8619 14.7332 11.4638C14.8965 11.2205 14.8889 11.0409 14.8077 10.7843C14.0232 8.3189 14.2281 5.93337 15.4204 3.63908C15.6923 3.11635 16.053 2.96049 16.4334 3.17813C16.7903 3.38152 16.845 3.76263 16.5844 4.25685C15.63 6.06928 15.4148 7.9682 15.9264 9.95171C15.9699 10.1199 16.0312 10.2844 16.0879 10.4649C16.2569 10.4573 16.4004 10.4516 16.5665 10.444C16.6109 10.1 16.6317 9.76448 16.6996 9.43849C17.0706 7.65552 18.6019 6.3563 20.4107 6.30878C21.4501 6.28217 22.4904 6.31164 23.5289 6.29073C23.729 6.28692 23.9613 6.21089 24.1199 6.09019C25.028 5.40019 25.2263 5.39069 26.1552 6.08354C26.1864 6.1073 26.2317 6.1111 26.311 6.13866C26.3733 5.09131 26.0825 4.17416 25.5076 3.34445C24.118 1.34004 21.1763 0.713716 18.887 1.92834C18.7322 2.01103 18.5849 2.10797 18.432 2.19541C18.0421 2.41685 17.6692 2.35127 17.4671 2.02813C17.2623 1.70119 17.3557 1.32958 17.7277 1.08057C18.5962 0.500823 19.5525 0.12256 20.5872 0.0360726C23.0587 -0.171117 25.1508 0.555947 26.6452 2.66396C26.7226 2.77326 26.8557 2.87495 26.9822 2.90916C29.7558 3.66664 31.0105 5.62924 30.5479 8.48047C30.4091 9.33774 30.2949 10.1998 30.1891 11.0618C30.1712 11.2053 30.225 11.3783 30.2987 11.5075C31.1502 13.0082 30.3468 14.7332 28.656 14.9879C28.3719 15.0307 28.2765 15.1467 28.217 15.4137C27.9366 16.6588 27.3117 17.7118 26.3393 18.5292C26.0382 18.782 25.9381 19.0357 25.9258 19.4197C25.9107 19.9082 25.9806 20.277 26.4432 20.5526C26.8038 20.7674 27.1134 21.0772 27.4165 21.3756C27.5892 21.5448 27.8026 21.7653 27.8234 21.9792C27.8621 22.3869 28.116 22.5542 28.3955 22.7442C29.146 23.2575 29.8889 23.783 30.6404 24.2934C31.4306 24.8304 32.0659 25.5099 32.5521 26.3663C33.3715 26.0346 34.1825 25.7152 34.9868 25.3769C35.2502 25.2666 35.2606 24.7705 35.0208 24.5681C34.7744 24.3609 34.5384 24.1375 34.2759 23.9532C34.1589 23.8705 33.9889 23.8296 33.8426 23.8306C31.6751 23.8448 29.9975 22.4135 29.7775 20.2447C29.7162 19.6402 29.9022 18.9996 30.0362 18.3885C30.1136 18.0359 30.3298 17.7156 30.4535 17.3706C30.7584 16.5152 31.0945 15.6675 31.3305 14.7922C32.0942 11.9523 34.6063 10.004 37.4781 10.0734C40.4217 10.1446 42.8262 12.1548 43.4606 15.0478C43.5758 15.5753 43.7665 16.0885 43.9543 16.596C44.2914 17.5027 44.6529 18.399 45.0051 19.2999V20.4499L45.0003 20.448ZM25.1555 7.00258C24.4959 7.41696 23.7514 7.62415 22.9219 7.62415C22.1175 7.62415 21.3132 7.61465 20.5079 7.627C19.073 7.64791 17.9477 8.75989 17.9269 10.2064C17.9071 11.576 17.8986 12.9465 17.9363 14.3141C17.9996 16.6236 19.916 18.5254 22.2695 18.6594C24.5541 18.7896 26.7273 17.0712 26.9709 14.7902C27.1219 13.377 27.0511 11.939 27.0653 10.5125C27.0804 8.98419 26.3667 7.85225 25.1545 7.00163L25.1555 7.00258ZM41.4186 22.4715C42.5855 22.2529 43.3624 21.4982 43.6154 20.4043C43.7627 19.7676 43.6107 19.1869 43.3785 18.6004C42.9687 17.5645 42.4552 16.5466 42.2192 15.4698C41.7235 13.205 39.8893 11.5142 37.5858 11.403C35.3182 11.2927 33.2035 12.7735 32.6635 15.0031C32.369 16.2197 31.8752 17.3374 31.4117 18.4788C31.2635 18.8438 31.1256 19.2258 31.0709 19.6136C30.8792 20.9632 32.0234 22.3926 33.296 22.4268C33.2384 22.1407 33.1393 21.8566 33.1317 21.5705C33.0959 20.2751 33.0647 18.9787 33.0742 17.6824C33.0808 16.7034 33.3781 15.7986 33.9276 14.9851C34.4619 14.1943 34.9604 14.1117 35.7137 14.6933C36.3717 15.2008 37.1071 15.4907 37.9407 15.5145C38.7602 15.5382 39.5796 15.5629 40.399 15.5876C41.2081 15.6114 41.6461 16.0486 41.6565 16.8536C41.6622 17.325 41.6612 17.7973 41.6565 18.2688C41.6518 18.7858 41.4073 19.0956 41.007 19.1023C40.6048 19.1089 40.3462 18.7962 40.3405 18.2868C40.3358 17.8363 40.3396 17.3858 40.3396 16.9239C38.4562 16.8222 36.5596 17.0874 34.9084 15.734C34.7319 16.2719 34.4846 16.7072 34.4629 17.1539C34.3968 18.5349 34.3817 19.9215 34.427 21.3034C34.4411 21.7339 34.6479 22.1939 34.8764 22.5732C35.5192 23.6424 36.7796 24.1451 37.9917 23.8857C39.2171 23.6224 40.0837 22.6492 40.3273 21.2625C40.4113 20.7864 40.6898 20.5564 41.1014 20.622C41.4743 20.6818 41.6933 21.0126 41.6244 21.4536C41.5734 21.7834 41.4913 22.1084 41.4148 22.4753L41.4186 22.4715ZM12.5383 17.2138C12.5581 16.9382 12.5779 16.7053 12.5902 16.4725C12.7799 13.0291 9.59282 10.7491 6.42931 12.0616C5.84967 12.3021 5.26152 12.5226 4.67527 12.7459C3.82468 13.0691 3.25542 13.665 3.00147 14.5412C2.73619 15.4536 3.04112 16.3328 3.14213 17.2081C3.56507 17.2832 3.75482 17.21 3.84545 16.7643C3.94835 16.2586 4.18814 15.7654 4.44964 15.3139C4.798 14.7114 5.31345 14.6667 5.90725 15.0383C6.43686 15.37 6.98441 15.6884 7.55934 15.9288C8.47412 16.3109 9.45782 16.232 10.4198 16.2054C11.1883 16.1836 11.784 16.3727 11.9832 17.2138H12.5373H12.5383ZM5.32477 16.2491C5.21715 16.7414 5.06799 17.134 5.05572 17.5303C5.02173 18.6489 4.99813 19.7714 5.05383 20.8881C5.13219 22.481 6.4076 23.6129 7.97189 23.5587C9.46915 23.5065 10.6284 22.2814 10.6454 20.7237C10.653 20.046 10.6473 19.3684 10.6473 18.6907C10.6473 18.3144 10.6473 17.938 10.6473 17.5132C8.75262 17.6405 6.98347 17.46 5.32477 16.2482V16.2491ZM28.927 10.4849C29.0393 9.7103 29.1724 8.97374 29.246 8.23146C29.297 7.71064 29.3461 7.167 29.2555 6.65949C29.0742 5.63874 28.453 4.92404 27.4561 4.41747C27.6751 5.4306 27.694 6.3487 27.5043 7.26775C27.4854 7.35994 27.4939 7.48539 27.543 7.55952C28.1132 8.43105 28.3501 9.40332 28.4021 10.4326C28.5758 10.4497 28.7193 10.464 28.927 10.4849ZM26.5404 22.3565C26.261 22.117 25.9947 21.9098 25.7559 21.676C25.5803 21.504 25.4274 21.4954 25.2159 21.6075C24.7269 21.867 24.2246 22.1027 23.7281 22.3479C23.071 22.672 23.0625 22.673 23.1494 23.4171C23.1616 23.5264 23.2778 23.6785 23.3797 23.7137C23.8876 23.8914 24.405 24.0454 24.9251 24.1841C25.0186 24.2088 25.1857 24.1603 25.2433 24.0862C25.6823 23.5226 26.1033 22.9438 26.5404 22.3555V22.3565ZM18.4395 22.3565C18.6293 22.6131 18.7831 22.8269 18.9427 23.036C19.2438 23.4323 19.4799 24.0301 19.8716 24.1632C20.2577 24.2944 20.8015 23.9541 21.2764 23.8211C21.3462 23.8011 21.4303 23.7973 21.4841 23.7555C21.6049 23.6604 21.8135 23.535 21.8032 23.4409C21.7711 23.1349 22.0269 22.7414 21.6106 22.5294C20.9724 22.2035 20.3304 21.886 19.68 21.5857C19.578 21.5382 19.3911 21.5572 19.3005 21.6247C19.0078 21.8413 18.7416 22.0942 18.4386 22.3555L18.4395 22.3565ZM24.5683 19.6088C23.19 20.1135 21.8032 20.1116 20.4248 19.6155C20.2615 20.3426 20.288 20.4015 20.8638 20.6856C21.2953 20.8985 21.7172 21.1371 22.1638 21.3129C22.3507 21.3871 22.6122 21.3909 22.7991 21.3186C23.2324 21.1504 23.6412 20.9175 24.0594 20.7104C24.4868 20.5 24.6564 20.1328 24.5683 19.6088ZM6.82393 24.8418C6.78711 25.3141 6.79466 25.7799 7.26952 26.0678C7.6292 26.2864 8.00021 26.2646 8.33063 25.9994C8.70353 25.7 8.73468 25.2961 8.66954 24.8408H6.82393V24.8418ZM36.5077 25.2448C36.4624 25.7171 36.4425 26.1581 36.8872 26.4366C37.1864 26.6238 37.5036 26.6105 37.785 26.3938C38.1777 26.0925 38.1456 25.6725 38.1012 25.2448H36.5067H36.5077ZM16.5844 13.6602V11.8079C16.0275 11.8335 15.664 12.1947 15.6536 12.7108C15.6442 13.2278 15.9746 13.5842 16.5844 13.6602ZM28.4049 13.6488C28.9647 13.6079 29.331 13.2344 29.3291 12.725C29.3272 12.2108 28.9609 11.8402 28.4049 11.8041V13.6479V13.6488ZM11.9879 20.0802C12.3778 20.1458 12.7252 20.0593 12.8526 19.7048C12.9395 19.4634 12.9206 19.1232 12.8158 18.8884C12.6742 18.57 12.3381 18.5064 11.9888 18.5757V20.0802H11.9879ZM3.69818 18.5653C3.03545 18.5596 2.69277 18.8637 2.72769 19.3864C2.75979 19.8692 3.11759 20.1249 3.69818 20.0631V18.5653Z" fill="white"/>
<path d="M0.01296 31.1962C-0.0351865 30.3114 0.0346731 29.2764 0.500089 28.307C0.694564 27.9021 1.03914 27.7387 1.3875 27.8955C1.73207 28.0513 1.89728 28.3707 1.74435 28.6929C1.20813 29.8229 1.34785 31.0195 1.32802 32.2037C1.32613 32.3358 1.33274 32.4688 1.32613 32.601C1.30253 33.04 1.03631 33.3109 0.646417 33.2986C0.27635 33.2871 0.0271207 33.022 0.0148481 32.5991C0.00351949 32.1875 0.0120159 31.776 0.0120159 31.1972L0.01296 31.1962Z" fill="white"/>
<path d="M15.4702 30.8865C15.4702 30.341 15.4646 29.7954 15.4721 29.2499C15.4778 28.8004 15.7317 28.5114 16.1084 28.5029C16.487 28.4943 16.7768 28.7804 16.7815 29.2195C16.7938 30.34 16.7928 31.4606 16.7815 32.5811C16.7768 33.0287 16.503 33.3024 16.116 33.2986C15.7242 33.2948 15.4787 33.0259 15.4721 32.5668C15.4636 32.007 15.4702 31.4463 15.4702 30.8865Z" fill="white"/>
<path d="M28.2047 30.895C28.2047 30.3495 28.199 29.8039 28.2066 29.2594C28.2122 28.8041 28.4567 28.5171 28.8325 28.5038C29.2242 28.4895 29.5122 28.7861 29.5159 29.2565C29.5263 30.3476 29.5254 31.4377 29.5169 32.5288C29.5131 33.0182 29.2582 33.2986 28.857 33.2996C28.4492 33.2996 28.2113 33.0277 28.2056 32.5326C28.199 31.987 28.2037 31.4415 28.2047 30.8969V30.895Z" fill="white"/>
</g>
<defs>
<clipPath id="clip0_491_6669">
<rect width="45" height="34" fill="white"/>
</clipPath>
</defs>
</svg>
