<svg width="21" height="72" viewBox="0 0 21 72" fill="none" xmlns="http://www.w3.org/2000/svg">
<g opacity="0.3">
<circle cx="2.16868" cy="69.8313" r="2.16868" transform="rotate(-90 2.16868 69.8313)" fill="#878787"/>
<circle cx="10.2234" cy="69.8313" r="2.16868" transform="rotate(-90 10.2234 69.8313)" fill="#878787"/>
<circle cx="18.28" cy="69.8313" r="2.16868" transform="rotate(-90 18.28 69.8313)" fill="#878787"/>
<g opacity="0.8">
<circle cx="2.16868" cy="58.5543" r="2.16868" transform="rotate(-90 2.16868 58.5543)" fill="#878787"/>
<circle cx="10.2234" cy="58.5543" r="2.16868" transform="rotate(-90 10.2234 58.5543)" fill="#878787"/>
<circle cx="18.28" cy="58.5543" r="2.16868" transform="rotate(-90 18.28 58.5543)" fill="#878787"/>
</g>
<g opacity="0.7">
<circle cx="2.16868" cy="47.2772" r="2.16868" transform="rotate(-90 2.16868 47.2772)" fill="#878787"/>
<circle cx="10.2234" cy="47.2772" r="2.16868" transform="rotate(-90 10.2234 47.2772)" fill="#878787"/>
<circle cx="18.28" cy="47.2772" r="2.16868" transform="rotate(-90 18.28 47.2772)" fill="#878787"/>
</g>
<g opacity="0.6">
<circle cx="2.16868" cy="36.0001" r="2.16868" transform="rotate(-90 2.16868 36.0001)" fill="#878787"/>
<circle cx="10.2234" cy="36" r="2.16868" transform="rotate(-90 10.2234 36)" fill="#878787"/>
<circle cx="18.28" cy="36" r="2.16868" transform="rotate(-90 18.28 36)" fill="#878787"/>
</g>
<g opacity="0.5">
<circle cx="2.16868" cy="24.7229" r="2.16868" transform="rotate(-90 2.16868 24.7229)" fill="#878787"/>
<circle cx="10.2234" cy="24.7229" r="2.16868" transform="rotate(-90 10.2234 24.7229)" fill="#878787"/>
<circle cx="18.28" cy="24.7229" r="2.16868" transform="rotate(-90 18.28 24.7229)" fill="#878787"/>
</g>
<g opacity="0.3">
<circle cx="2.16868" cy="13.4459" r="2.16868" transform="rotate(-90 2.16868 13.4459)" fill="#878787"/>
<circle cx="10.2234" cy="13.4459" r="2.16868" transform="rotate(-90 10.2234 13.4459)" fill="#878787"/>
<circle cx="18.28" cy="13.4459" r="2.16868" transform="rotate(-90 18.28 13.4459)" fill="#878787"/>
</g>
<g opacity="0.1">
<circle cx="2.16868" cy="2.16866" r="2.16868" transform="rotate(-90 2.16868 2.16866)" fill="#878787"/>
<circle cx="10.2234" cy="2.16863" r="2.16868" transform="rotate(-90 10.2234 2.16863)" fill="#878787"/>
<circle cx="18.28" cy="2.16863" r="2.16868" transform="rotate(-90 18.28 2.16863)" fill="#878787"/>
</g>
</g>
</svg>
